<svg
  version="1.0"
  xmlns="http://www.w3.org/2000/svg"
  viewBox="0 0 600.000000 600.000000"
  preserveAspectRatio="xMidYMid meet"
>
  <g
    transform="translate(0.000000,600.000000) scale(0.100000,-0.100000)"
    stroke="none"
  >
    <path d="M2795 5509 c-592 -46 -1164 -303 -1599 -719 -280 -267 -513 -630 -646 -1005 -48 -135 -97 -336 -121 -496 -29 -189 -31 -513 -6 -699 81 -587 333 -1097 742 -1505 877 -875 2245 -1009 3278 -321 238 158 486 396 655 627 258 354 433 807 481 1251 16 144 14 457 -4 595 -101 765 -509 1427 -1141 1846 -377 250 -796 391 -1264 427 -151 11 -215 11 -375 -1z m545 -314 c1075 -169 1870 -1034 1952 -2121 55 -728 -272 -1478 -844 -1939 -327 -263 -693 -423 -1123 -492 -152 -24 -497 -24 -650 0 -263 41 -454 101 -690 217 -568 279 -972 743 -1171 1347 -330 998 71 2104 966 2663 113 71 341 180 466 223 163 57 370 101 559 121 89 9 434 -3 535 -19z" />
    <path d="M3197 5049 c5 -5 94 -31 199 -58 241 -62 323 -90 459 -156 152 -73 253 -143 368 -254 149 -144 246 -316 264 -470 11 -93 -55 -163 -161 -169 l-61 -4 -670 292 c-1651 720 -1535 670 -1570 670 -53 0 -265 -128 -425 -256 -275 -220 -523 -552 -650 -869 -41 -102 -115 -320 -123 -362 l-6 -33 355 0 c333 0 356 1 350 17 -17 44 -18 279 -2 378 18 109 74 288 108 344 64 107 182 210 303 266 97 45 164 59 275 59 139 0 244 -36 800 -279 261 -114 612 -267 780 -340 168 -73 483 -210 700 -305 217 -94 414 -181 438 -192 77 -36 157 -10 194 63 26 49 22 86 -18 211 -130 403 -372 755 -711 1037 -221 184 -615 383 -816 411 -88 13 -393 12 -380 -1z" />
    <path d="M2865 4076 c-209 -48 -380 -182 -469 -369 -24 -51 -49 -113 -55 -139 -44 -186 -8 -382 100 -543 105 -157 275 -264 467 -295 97 -16 -276 -3 -428 15 -478 55 -933 185 -1280 367 -102 53 -288 170 -361 227 -22 17 -29 19 -38 8 -7 -9 -13 -104 -17 -259 l-7 -246 54 -11 c48 -10 363 -69 569 -106 93 -17 403 -75 614 -114 87 -16 160 -32 162 -34 2 -2 -78 -18 -179 -37 -750 -137 -1120 -209 -1129 -218 -8 -8 1 -44 32 -134 34 -99 90 -229 105 -246 2 -2 47 21 102 50 54 29 134 70 178 90 44 20 112 51 150 69 174 80 525 178 798 223 294 49 438 60 782 59 342 0 487 -12 765 -59 268 -45 606 -141 780 -221 41 -19 111 -51 155 -71 44 -20 124 -61 177 -89 54 -29 99 -53 101 -53 2 0 20 35 40 78 51 111 110 293 99 304 -8 8 -1272 248 -1305 248 -43 0 82 25 674 135 371 69 685 127 698 131 l24 5 -7 246 c-4 156 -10 251 -17 260 -9 11 -16 9 -38 -8 -73 -57 -259 -174 -361 -227 -421 -220 -1047 -372 -1595 -386 -88 -3 -146 -3 -130 0 183 29 295 83 411 199 67 67 90 99 127 176 71 145 81 134 -114 136 l-165 2 -31 -39 c-87 -114 -217 -169 -354 -150 -105 15 -213 89 -259 180 l-20 40 503 0 504 0 7 46 c26 195 -32 385 -166 546 -57 69 -196 158 -298 192 -103 34 -259 44 -355 22z m286 -338 c59 -27 117 -73 150 -119 l20 -29 -310 0 c-193 0 -311 4 -311 10 0 15 56 75 100 105 102 71 241 84 351 33z" />
    <path d="M2660 2309 c-460 -40 -884 -149 -1235 -319 -135 -65 -278 -150 -314 -185 l-25 -24 66 -98 c36 -54 102 -139 146 -190 76 -87 198 -203 214 -203 4 0 52 42 105 94 194 186 304 272 489 381 117 70 290 155 368 181 80 28 292 74 337 74 l31 0 -7 -147 c-20 -457 -71 -825 -146 -1042 -16 -47 -30 -90 -32 -96 -4 -17 169 -33 343 -33 174 0 347 16 343 33 -2 6 -16 49 -32 96 -75 217 -126 585 -146 1042 l-7 147 31 0 c45 0 257 -46 337 -74 78 -26 251 -111 368 -181 185 -109 295 -195 489 -381 53 -52 101 -94 105 -94 16 0 140 117 210 198 79 93 202 269 202 290 0 7 -42 40 -92 73 -348 225 -819 380 -1348 445 -159 19 -641 27 -800 13z" />
  </g>
</svg>
