<svg xmlns="http://www.w3.org/2000/svg"
 viewBox="0 0 300.000000 300.000000">
<g transform="translate(0.000000,300.000000) scale(0.100000,-0.100000)" stroke="none">
<path d="M1340 2994 c-352 -45 -659 -192 -900 -434 -214 -213 -356 -481 -416
-785 -26 -126 -26 -424 0 -550 123 -618 583 -1078 1201 -1201 126 -26 424 -26
550 0 195 39 384 115 540 216 78 52 212 158 248 197 17 20 16 21 -43 42 -80
29 -215 132 -261 198 l-36 52 -29 -31 c-116 -124 -370 -211 -684 -233 -254
-18 -519 56 -693 194 -299 237 -390 725 -217 1158 17 43 39 91 49 106 18 28
17 32 -17 168 -53 212 -42 225 148 179 l121 -30 90 59 c139 92 331 151 489
151 78 0 215 -25 293 -53 l65 -24 113 69 c183 109 194 102 205 -137 l7 -159
42 -52 c132 -161 210 -333 251 -550 25 -135 16 -332 -20 -443 -34 -103 -31
-132 23 -203 58 -77 68 -81 170 -73 79 6 129 0 187 -22 29 -11 124 240 160
422 26 126 26 424 0 550 -123 615 -586 1080 -1196 1200 -83 16 -364 28 -440
19z"/>
<path d="M1317 2264 c-192 -46 -379 -216 -446 -405 -15 -39 -25 -54 -38 -53
-10 1 -46 5 -80 9 -53 6 -63 5 -63 -7 0 -15 56 -28 121 -28 24 0 29 -4 29 -24
0 -29 -16 -36 -86 -36 -43 0 -54 -3 -54 -16 0 -15 9 -16 65 -10 l65 7 0 -30
c0 -26 -6 -31 -60 -51 -44 -16 -60 -27 -60 -41 0 -20 17 -17 80 16 16 8 31 15
33 15 2 0 10 -34 16 -75 30 -183 139 -296 328 -339 92 -20 293 -21 428 -1 197
29 324 82 415 174 78 77 103 143 104 274 l1 98 35 -6 c19 -4 47 -9 63 -12 20
-4 27 -2 27 10 0 10 -19 18 -66 27 -51 10 -67 17 -74 34 -4 11 -6 24 -4 27 2
4 33 10 69 14 48 5 65 11 65 21 0 15 -32 14 -121 -2 -21 -4 -28 0 -33 18 -3
13 -6 26 -6 29 0 3 34 16 75 28 58 18 75 27 75 41 0 17 -6 17 -85 -10 l-84
-29 -35 57 c-83 135 -221 237 -373 276 -76 20 -246 20 -326 0z"/>
</g>
</svg>
