<?xml version="1.0" standalone="no"?>
<!DOCTYPE svg PUBLIC "-//W3C//DTD SVG 20010904//EN"
 "http://www.w3.org/TR/2001/REC-SVG-20010904/DTD/svg10.dtd">
<svg version="1.0" xmlns="http://www.w3.org/2000/svg"
 width="2230.000000pt" height="433.000000pt" viewBox="0 0 2230.000000 433.000000"
 preserveAspectRatio="xMidYMid meet">

<g transform="translate(0.000000,433.000000) scale(0.100000,-0.100000)"
fill="#004a9a" stroke="none">
<path d="M8109 4315 c-152 -21 -284 -61 -408 -121 -99 -49 -125 -67 -196 -137
-131 -131 -185 -260 -185 -442 0 -164 43 -282 144 -392 137 -150 352 -250 761
-353 342 -87 426 -121 508 -209 66 -71 90 -128 90 -216 0 -246 -269 -405 -575
-341 -94 21 -170 59 -239 123 -67 62 -102 116 -135 207 l-22 61 -311 3 -311 2
0 -24 c0 -43 49 -195 89 -274 105 -208 248 -331 473 -407 323 -108 779 -107
1083 2 247 89 409 226 506 428 59 122 74 190 73 335 0 141 -13 198 -71 314
-46 92 -168 214 -273 273 -147 83 -363 153 -744 242 -135 31 -245 63 -288 83
-155 71 -207 209 -131 349 54 101 149 149 308 156 173 8 293 -33 384 -133 26
-29 58 -77 72 -108 l24 -56 313 0 312 0 -6 28 c-20 85 -58 185 -91 241 -103
175 -294 292 -570 351 -128 28 -442 36 -584 15z"/>
<path d="M1609 3843 c-760 -975 -910 -1167 -1219 -1563 -178 -228 -339 -434
-358 -457 l-34 -43 338 1 339 0 515 661 c283 364 715 918 960 1232 245 314
449 577 454 584 6 9 -64 12 -327 12 l-334 0 -334 -427z"/>
<path d="M2910 3025 l0 -1245 965 0 965 0 0 245 0 245 -635 0 -635 0 0 984 c0
541 -3 991 -6 1000 -5 14 -44 16 -330 16 l-324 0 0 -1245z"/>
<path d="M5097 4263 c-4 -3 -7 -564 -7 -1245 l0 -1238 330 0 330 0 0 409 0
409 363 5 c311 4 375 8 452 25 255 56 420 175 520 377 60 121 84 227 91 400
21 511 -195 796 -647 855 -83 10 -1422 14 -1432 3z m1134 -427 c135 -29 214
-91 273 -215 29 -63 31 -72 31 -186 0 -111 -2 -125 -28 -181 -34 -74 -113
-155 -180 -184 -88 -39 -170 -50 -379 -50 l-198 0 0 415 0 415 208 0 c139 0
229 -5 273 -14z"/>
<path d="M10828 3657 c-262 -337 -584 -749 -715 -917 -429 -549 -729 -935
-737 -947 -6 -10 62 -13 326 -13 l334 0 525 672 c288 369 576 738 639 819
l115 148 3 -819 2 -820 330 0 330 0 0 1245 0 1245 -337 0 -338 -1 -477 -612z"/>
<path d="M12230 3025 l0 -1245 965 0 965 0 0 245 0 245 -634 0 -633 0 -7 46
c-3 26 -6 476 -6 1000 l0 954 -325 0 -325 0 0 -1245z"/>
<path d="M14417 4264 c-4 -4 -7 -565 -7 -1246 l0 -1238 330 0 330 0 0 410 0
410 288 0 c442 0 573 19 752 106 179 88 308 258 360 474 45 188 36 452 -21
624 -83 249 -230 374 -524 447 -56 14 -1495 26 -1508 13z m1134 -428 c135 -29
214 -91 273 -215 29 -63 31 -72 31 -186 0 -114 -2 -123 -31 -185 -33 -67 -98
-141 -148 -167 -98 -51 -131 -56 -373 -61 l-233 -4 0 416 0 416 208 0 c139 0
229 -5 273 -14z"/>
<path d="M16690 3025 l0 -1245 330 0 330 0 0 1245 0 1245 -330 0 -330 0 0
-1245z"/>
<path d="M17600 3025 l0 -1245 305 0 305 0 2 816 3 815 261 -383 c143 -211
393 -578 555 -815 l294 -433 328 0 327 0 0 1245 0 1245 -305 0 -305 0 -2 -825
-3 -825 -560 825 -560 824 -322 1 -323 0 0 -1245z"/>
<path d="M20230 3025 l0 -1245 1035 0 1035 0 0 220 0 220 -705 0 -705 0 0 340
0 340 635 0 635 0 0 190 0 190 -635 0 -635 0 0 290 0 290 685 0 685 0 0 205 0
205 -1015 0 -1015 0 0 -1245z"/>
<path d="M2153 3133 c-226 -290 -556 -712 -732 -938 l-320 -410 731 -3 c402
-1 733 -1 735 1 2 2 2 425 1 941 l-3 937 -412 -528z"/>
<path d="M5050 1300 c-79 -41 -178 -182 -196 -278 -7 -37 -21 -47 -82 -57 -33
-5 -45 -13 -53 -32 -5 -13 -9 -26 -9 -29 0 -2 25 -4 55 -4 49 0 55 -2 55 -21
0 -12 -16 -124 -35 -250 -19 -127 -35 -234 -35 -238 0 -5 -22 -15 -50 -22 -27
-7 -50 -18 -50 -23 0 -6 -3 -21 -6 -34 l-6 -22 190 0 190 0 7 31 c4 17 5 32 3
34 -2 3 -38 10 -80 16 l-75 11 13 81 c7 45 26 162 40 260 l28 177 67 0 c61 0
67 2 73 23 12 45 9 47 -63 47 l-69 0 15 78 c18 94 44 156 73 172 28 15 75 -1
119 -40 36 -34 44 -32 67 11 20 39 11 82 -23 109 -33 26 -114 26 -163 0z"/>
<path d="M13822 1303 c-44 -24 -117 -97 -147 -148 -13 -23 -34 -72 -46 -108
l-21 -66 -52 -11 c-50 -12 -76 -31 -76 -57 0 -9 16 -13 55 -13 37 0 55 -4 55
-12 0 -7 -16 -124 -36 -260 l-37 -247 -48 -11 c-35 -9 -49 -17 -53 -33 -13
-49 -17 -48 181 -45 l188 3 9 27 c5 15 7 30 5 33 -3 2 -40 10 -82 16 -71 10
-76 13 -72 33 7 28 75 472 75 485 0 7 28 11 70 11 49 0 70 4 70 13 0 6 3 22 6
35 6 21 4 22 -64 22 l-69 0 15 83 c18 104 34 141 66 162 33 22 76 9 123 -37
37 -36 54 -30 73 28 14 41 -2 82 -40 101 -36 18 -110 16 -148 -4z"/>
<path d="M6674 1299 c-25 -13 -54 -60 -54 -89 0 -30 53 -80 85 -80 42 0 85 50
85 99 0 68 -54 100 -116 70z"/>
<path d="M18911 1296 c-56 -31 -65 -93 -21 -138 26 -25 36 -29 63 -24 45 8 77
48 77 95 0 66 -60 100 -119 67z"/>
<path d="M11150 1277 l-45 -12 -227 -425 c-125 -234 -231 -430 -237 -437 -6
-7 -35 -20 -65 -29 -44 -14 -57 -23 -65 -45 -5 -15 -7 -30 -4 -33 4 -3 86 -6
184 -6 l177 0 7 31 c8 37 3 42 -71 58 l-53 12 59 120 60 119 160 0 c157 0 160
0 165 -22 23 -96 43 -203 40 -209 -3 -3 -34 -15 -70 -25 -55 -16 -66 -23 -75
-48 -5 -16 -10 -31 -10 -32 0 -8 399 -4 403 4 2 4 7 19 11 34 6 25 3 28 -43
43 -49 16 -50 17 -60 68 -6 29 -42 221 -81 427 -38 206 -72 385 -75 398 -6 25
-18 26 -85 9z m-5 -357 c14 -85 28 -165 30 -177 5 -23 5 -23 -125 -23 -71 0
-130 2 -130 5 0 7 157 311 178 345 9 13 17 20 18 15 2 -6 14 -80 29 -165z"/>
<path d="M3126 1264 c-60 -8 -111 -16 -113 -17 -1 -2 -6 -17 -9 -34 -6 -30 -5
-31 43 -38 27 -3 54 -10 61 -14 16 -10 -94 -751 -114 -767 -7 -6 -38 -17 -68
-24 -47 -11 -57 -17 -66 -43 -5 -16 -10 -32 -10 -33 0 -2 104 -4 230 -4 245 0
237 -2 242 49 3 24 -1 26 -77 38 -43 8 -81 16 -84 18 -3 4 80 571 110 753 l11
62 77 0 c139 0 204 -66 204 -204 0 -86 -24 -147 -76 -193 -42 -37 -84 -50
-180 -60 -63 -6 -68 -8 -63 -27 3 -12 6 -27 6 -35 0 -11 20 -13 103 -9 140 7
203 32 283 112 72 72 94 126 94 230 0 126 -55 195 -188 236 -77 24 -246 26
-416 4z"/>
<path d="M9250 1274 c-8 -1 -50 -6 -92 -9 l-78 -7 0 -33 c0 -31 1 -33 50 -39
45 -6 50 -9 45 -29 -4 -21 -16 -99 -88 -562 l-33 -210 -44 -15 c-51 -17 -60
-25 -60 -57 0 -23 1 -23 154 -23 l154 0 6 25 c9 35 3 42 -44 50 -22 4 -40 10
-40 13 0 4 16 104 35 222 38 241 41 247 128 271 59 16 89 3 105 -45 10 -33 9
-63 -14 -215 -14 -97 -30 -198 -35 -225 -19 -101 -23 -96 95 -96 99 0 104 1
110 23 10 40 7 45 -39 51 -25 4 -45 11 -45 15 0 4 16 108 36 232 47 292 40
352 -42 379 -66 22 -136 -3 -217 -79 -50 -46 -50 -46 -43 -16 5 17 20 105 35
197 31 190 29 197 -39 182z"/>
<path d="M15473 1268 c-81 -9 -92 -12 -97 -31 -10 -40 -6 -44 44 -51 28 -4 50
-10 50 -15 0 -5 -27 -182 -60 -394 -33 -211 -60 -387 -60 -391 0 -3 -21 -11
-46 -17 -43 -11 -64 -34 -64 -70 0 -5 67 -9 160 -9 153 0 160 1 162 20 0 11 1
25 2 32 1 7 -19 17 -44 23 -29 7 -44 16 -43 26 10 68 71 467 98 643 35 219 35
249 1 245 -6 -1 -52 -6 -103 -11z"/>
<path d="M14507 1243 c-3 -16 -4 -29 -2 -31 2 -2 32 -10 68 -18 l64 -15 -12
-77 c-7 -42 -35 -220 -61 -394 l-49 -316 -65 -18 c-69 -18 -80 -26 -80 -61 l0
-23 394 0 393 0 23 115 c12 63 20 121 17 130 -4 8 -18 15 -32 15 -21 0 -31
-12 -70 -90 l-45 -90 -194 0 -193 0 7 42 c4 24 18 109 30 191 l22 147 104 0
103 0 6 -68 7 -68 33 4 32 4 32 150 c17 83 29 153 27 156 -3 2 -20 2 -39 -2
-29 -5 -37 -13 -52 -51 l-17 -45 -109 0 c-97 0 -109 2 -109 18 0 9 11 91 25
182 14 91 25 166 25 167 0 2 78 3 174 3 l174 0 7 -84 c7 -84 7 -84 37 -90 17
-3 33 -4 35 -2 3 3 53 229 53 241 0 3 -170 5 -379 5 l-379 0 -5 -27z"/>
<path d="M6207 1102 c-19 -26 -63 -73 -96 -105 -74 -71 -79 -97 -20 -97 39 0
40 -1 35 -27 -19 -91 -66 -411 -66 -449 0 -92 42 -144 118 -144 50 0 91 16
149 58 32 24 40 36 36 52 -5 19 -11 21 -37 15 -85 -18 -93 -18 -115 4 -15 15
-21 34 -21 67 0 37 27 225 55 392 l6 32 79 0 c43 0 81 3 83 8 3 4 8 22 12 40
l7 32 -83 0 -82 0 6 43 c3 23 9 61 13 85 6 40 5 42 -19 42 -19 0 -34 -12 -60
-48z"/>
<path d="M8778 1103 c-20 -27 -64 -75 -97 -108 -74 -72 -79 -95 -20 -95 39 0
40 -1 35 -27 -17 -81 -66 -414 -66 -451 0 -90 43 -142 118 -142 50 0 91 16
149 58 32 24 40 36 36 52 -5 19 -11 21 -37 15 -85 -18 -93 -18 -115 4 -28 28
-27 62 4 269 38 250 23 222 115 222 43 0 81 3 83 8 3 4 8 22 12 40 l7 32 -83
0 -82 0 6 43 c3 23 9 61 13 85 6 40 5 42 -18 42 -17 0 -35 -14 -60 -47z"/>
<path d="M12247 1102 c-19 -26 -63 -73 -96 -105 -74 -71 -79 -97 -21 -97 37 0
40 -2 35 -22 -17 -78 -65 -414 -65 -459 0 -59 24 -110 61 -129 12 -7 45 -10
75 -8 71 6 164 65 164 104 0 25 -2 26 -32 19 -90 -19 -105 -18 -122 6 -9 14
-16 43 -16 70 0 41 41 333 55 397 5 21 11 22 86 22 55 0 81 4 83 13 3 6 7 24
10 40 l6 27 -81 0 -82 0 7 53 c4 28 9 67 12 85 6 29 4 32 -19 32 -19 0 -35
-13 -60 -48z"/>
<path d="M16750 1098 c-25 -29 -71 -78 -102 -109 -70 -68 -74 -89 -18 -89 22
0 40 -2 40 -6 0 -3 -16 -107 -36 -232 -40 -258 -39 -304 6 -352 24 -25 35 -30
77 -30 86 0 199 71 187 116 -5 21 -7 21 -55 7 -68 -20 -95 -12 -109 33 -13 38
-13 41 27 297 l26 167 82 0 83 0 6 31 c3 17 6 35 6 40 0 5 -37 9 -81 9 l-81 0
6 32 c3 18 9 56 13 85 5 47 4 53 -13 53 -10 0 -39 -24 -64 -52z"/>
<path d="M19775 1000 c-118 -18 -205 -114 -205 -227 0 -69 42 -136 130 -208
83 -68 100 -89 100 -128 0 -39 -15 -64 -50 -82 -66 -34 -115 -5 -145 86 -18
53 -21 55 -60 37 -30 -14 -55 -55 -55 -92 0 -29 41 -81 81 -101 44 -23 145
-19 204 9 93 43 156 141 141 221 -8 42 -45 89 -132 169 -80 74 -109 126 -98
182 7 41 46 74 85 74 39 0 66 -39 74 -106 8 -63 25 -70 73 -29 34 29 49 85 33
127 -19 51 -94 80 -176 68z"/>
<path d="M3962 986 c-92 -30 -187 -132 -231 -250 -37 -100 -45 -272 -16 -351
53 -142 257 -152 386 -19 29 30 31 36 18 49 -13 13 -20 12 -63 -10 -65 -33
-152 -35 -185 -4 -29 27 -37 51 -46 131 l-7 65 72 5 c96 7 191 54 234 116 40
57 48 159 17 209 -38 61 -104 83 -179 59z m58 -93 c18 -24 21 -38 18 -90 -6
-91 -50 -132 -151 -136 l-52 -2 3 40 c4 60 29 138 53 169 41 52 97 60 129 19z"/>
<path d="M4584 990 c-32 -13 -84 -78 -115 -144 -34 -73 -35 -69 -9 35 12 44
18 85 14 90 -6 11 -56 9 -186 -7 -47 -6 -48 -7 -48 -40 0 -32 1 -33 50 -40 44
-6 49 -9 45 -28 -2 -11 -18 -113 -35 -226 -40 -271 -33 -247 -83 -262 -47 -13
-57 -23 -57 -55 l0 -23 179 0 c190 0 191 0 191 50 0 15 -11 19 -58 25 -32 3
-64 10 -71 14 -10 7 -8 38 9 157 25 168 46 220 109 277 44 40 74 46 108 22 20
-14 23 -13 41 12 39 57 33 120 -14 142 -29 13 -41 13 -70 1z"/>
<path d="M5339 986 c-114 -31 -213 -155 -255 -317 -25 -96 -16 -250 16 -309
50 -91 171 -115 285 -57 63 32 118 88 109 110 -8 22 -10 22 -68 -8 -67 -34
-153 -35 -184 -3 -30 33 -42 71 -42 137 l0 58 63 5 c135 11 245 89 266 189 30
138 -60 231 -190 195z m50 -87 c40 -44 34 -144 -11 -186 -34 -31 -59 -41 -118
-49 l-53 -7 5 66 c7 81 40 152 82 178 40 25 71 24 95 -2z"/>
<path d="M5794 976 c-143 -67 -239 -222 -251 -406 -15 -223 105 -344 279 -284
48 16 128 77 128 97 -1 34 -17 38 -61 12 -47 -27 -115 -33 -151 -14 -76 41
-79 290 -4 437 42 82 108 128 140 97 14 -15 36 -75 36 -102 0 -17 25 -16 60 2
61 32 68 99 16 151 -30 30 -40 34 -87 34 -36 0 -72 -8 -105 -24z"/>
<path d="M7258 986 c-46 -17 -78 -37 -127 -82 l-38 -34 10 45 c15 65 9 68
-113 55 -57 -5 -104 -11 -105 -13 -1 -1 -5 -16 -8 -34 -6 -31 -6 -31 43 -38
28 -4 50 -11 50 -17 0 -8 -33 -232 -66 -451 -5 -34 -9 -38 -51 -48 -42 -11
-63 -34 -63 -70 0 -15 310 -12 315 4 14 42 10 50 -37 63 -35 11 -45 18 -42 32
2 9 17 107 34 217 35 227 38 233 132 256 41 9 52 9 73 -5 22 -14 25 -24 25
-71 0 -44 -31 -262 -65 -462 l-6 -33 109 0 c91 0 111 3 116 16 12 32 6 42 -34
49 -22 4 -42 10 -45 15 -3 4 8 93 24 196 16 104 33 214 36 245 8 64 -6 128
-34 153 -26 24 -88 29 -133 12z"/>
<path d="M7764 984 c-85 -31 -160 -119 -184 -216 -16 -62 -7 -106 34 -166 l33
-49 -34 -19 c-92 -49 -120 -131 -63 -184 l30 -28 -33 -13 c-79 -33 -136 -116
-122 -179 17 -76 89 -120 211 -128 131 -8 248 30 327 106 57 54 70 85 65 153
-8 111 -70 154 -243 166 -101 7 -125 15 -125 44 0 36 43 65 99 66 62 1 149 40
186 85 53 63 70 108 69 186 -1 39 2 72 6 72 4 0 26 -6 48 -14 l40 -14 16 42
c31 80 28 82 -83 66 -57 -8 -66 -7 -92 12 -37 28 -128 34 -185 12z m107 -70
c21 -23 24 -35 24 -102 -1 -131 -44 -212 -114 -212 -45 0 -65 19 -81 78 -12
48 -1 131 24 181 20 39 72 81 100 81 12 0 33 -12 47 -26z m-58 -618 c74 -27
101 -79 72 -140 -22 -46 -66 -68 -147 -74 -146 -10 -231 64 -183 159 26 49 70
69 150 69 39 -1 87 -7 108 -14z"/>
<path d="M9913 991 c-50 -13 -118 -57 -158 -103 -132 -155 -165 -454 -62 -567
47 -51 133 -65 218 -36 54 19 143 84 147 109 7 33 -13 38 -58 15 -50 -26 -147
-37 -178 -20 -33 18 -53 65 -59 142 l-6 69 45 0 c25 0 76 9 113 21 113 35 184
119 185 219 0 108 -84 176 -187 151z m42 -91 c27 -30 31 -116 8 -160 -23 -45
-65 -68 -137 -76 l-59 -7 6 54 c10 84 35 145 73 179 41 35 83 39 109 10z"/>
<path d="M11942 983 c-35 -17 -79 -74 -113 -146 -21 -43 -21 -39 2 66 8 38 9
61 2 68 -9 9 -209 -3 -218 -13 -1 -2 -6 -17 -9 -34 -7 -32 -7 -32 43 -39 32
-4 51 -12 51 -20 0 -7 -16 -115 -35 -241 -19 -125 -35 -231 -35 -236 0 -4 -21
-13 -46 -19 -43 -11 -64 -34 -64 -70 0 -5 75 -9 180 -9 l180 0 10 26 c15 39
14 41 -42 48 -29 4 -62 9 -74 12 l-20 5 23 156 c18 120 30 168 50 206 47 85
111 124 157 93 24 -15 26 -14 50 15 34 40 35 91 1 124 -28 29 -48 31 -93 8z"/>
<path d="M13165 991 c-219 -54 -363 -385 -259 -598 44 -91 119 -132 213 -118
182 27 327 252 307 476 -17 189 -112 276 -261 240z m95 -116 c23 -45 25 -61
24 -165 -1 -165 -35 -281 -101 -341 -60 -56 -114 -40 -148 43 -21 52 -24 212
-5 303 16 80 54 158 92 190 24 21 39 25 72 23 38 -3 43 -6 66 -53z"/>
<path d="M15893 990 c-166 -39 -293 -259 -280 -485 6 -105 23 -150 71 -193 79
-69 224 -49 321 43 37 34 40 42 27 63 -7 10 -21 7 -63 -13 -68 -31 -145 -34
-181 -6 -30 24 -48 81 -48 150 l0 51 44 0 c80 0 172 36 226 88 68 67 86 141
54 222 -26 66 -95 98 -171 80z m22 -76 c23 -9 45 -58 45 -101 0 -84 -58 -138
-160 -150 l-53 -6 6 64 c14 133 88 221 162 193z"/>
<path d="M16350 984 c-158 -69 -264 -249 -264 -449 0 -137 42 -217 131 -251
74 -29 168 -6 247 59 24 19 28 29 22 50 l-6 26 -47 -24 c-78 -42 -154 -31
-188 28 -24 40 -31 162 -16 252 34 195 168 325 210 204 6 -18 11 -43 11 -55 0
-31 26 -31 71 -1 28 19 35 30 37 65 3 37 -1 47 -31 77 -31 31 -41 35 -88 35
-30 -1 -70 -8 -89 -16z"/>
<path d="M17372 980 c-34 -21 -105 -122 -116 -166 -4 -14 -9 -24 -11 -22 -3 2
5 42 16 88 11 47 16 87 11 92 -9 9 -204 -6 -222 -17 -5 -3 -10 -19 -10 -35 0
-26 3 -29 51 -35 45 -6 50 -9 46 -29 -3 -11 -20 -120 -38 -241 -18 -121 -36
-225 -41 -231 -5 -7 -24 -15 -43 -18 -34 -7 -55 -30 -55 -60 0 -14 23 -16 179
-16 190 0 191 0 191 50 0 15 -11 19 -58 25 -32 3 -64 10 -71 14 -9 6 -7 40 10
157 23 159 39 201 95 264 42 46 84 59 119 36 23 -15 25 -14 44 10 42 53 34
126 -14 144 -36 14 -45 13 -83 -10z"/>
<path d="M17725 991 c-175 -45 -306 -253 -292 -462 14 -216 161 -313 337 -224
102 51 191 194 210 336 20 141 -22 284 -96 330 -36 22 -113 32 -159 20z m85
-93 c72 -119 32 -436 -67 -530 -42 -40 -74 -44 -110 -14 -51 43 -71 151 -54
294 14 117 42 192 90 243 32 33 44 39 80 39 36 0 44 -4 61 -32z"/>
<path d="M18438 986 c-46 -17 -78 -37 -131 -84 -22 -20 -38 -29 -34 -20 14 38
18 86 8 92 -9 6 -210 -10 -218 -17 -1 -2 -6 -17 -9 -34 -6 -31 -6 -31 46 -38
50 -7 52 -8 47 -34 -3 -14 -20 -126 -38 -249 l-33 -223 -44 -11 c-41 -10 -62
-34 -62 -69 0 -5 65 -9 154 -9 131 0 155 2 160 16 14 37 6 50 -39 62 -41 11
-44 14 -39 39 2 16 18 114 34 218 27 178 31 191 56 212 24 19 93 43 123 43 6
0 20 -9 31 -20 28 -28 26 -71 -15 -324 -19 -119 -35 -220 -35 -226 0 -6 43
-10 109 -10 104 0 109 1 115 23 9 34 9 35 -35 42 -22 4 -42 12 -45 19 -2 6 9
99 26 206 33 207 40 323 20 359 -12 24 -66 51 -97 51 -10 -1 -35 -7 -55 -14z"/>
<path d="M19290 984 c-152 -66 -261 -246 -263 -434 -1 -139 33 -217 113 -258
58 -29 121 -29 185 2 78 38 109 68 102 98 l-7 25 -47 -23 c-100 -51 -180 -20
-203 78 -26 106 8 296 68 383 33 47 87 79 113 65 19 -11 39 -60 39 -98 0 -22
3 -24 32 -18 94 19 108 140 21 185 -30 16 -111 13 -153 -5z"/>
<path d="M6600 969 c-97 -11 -102 -14 -98 -46 3 -24 9 -29 47 -35 24 -4 45 -9
47 -10 4 -5 -71 -482 -79 -494 -4 -7 -24 -15 -44 -19 -42 -8 -53 -19 -53 -52
0 -23 1 -23 155 -23 l155 0 6 24 c8 34 0 43 -46 51 -28 5 -40 12 -39 23 0 10
19 141 43 292 28 181 39 279 33 288 -10 13 -18 13 -127 1z"/>
<path d="M18845 969 c-102 -11 -107 -13 -103 -46 3 -25 9 -29 50 -37 42 -7 47
-11 43 -30 -2 -11 -18 -115 -35 -231 -17 -116 -35 -219 -39 -230 -5 -12 -24
-23 -52 -30 -38 -9 -44 -15 -50 -43 l-6 -32 158 0 159 0 6 24 c8 34 0 43 -46
51 -33 6 -40 11 -39 28 0 12 20 144 43 292 43 271 43 297 7 294 -9 -1 -52 -5
-96 -10z"/>
</g>
</svg>
