<?xml version="1.0" encoding="UTF-8" standalone="no"?>
<!-- Created with Inkscape (http://www.inkscape.org/) -->

<svg
   xmlns:dc="http://purl.org/dc/elements/1.1/"
   xmlns:cc="http://creativecommons.org/ns#"
   xmlns:rdf="http://www.w3.org/1999/02/22-rdf-syntax-ns#"
   xmlns:svg="http://www.w3.org/2000/svg"
   xmlns="http://www.w3.org/2000/svg"
   xmlns:sodipodi="http://sodipodi.sourceforge.net/DTD/sodipodi-0.dtd"
   xmlns:inkscape="http://www.inkscape.org/namespaces/inkscape"
   width="259.0018"
   height="70"
   viewBox="0 0 68.527558 18.520834"
   version="1.1"
   id="svg5925"
   inkscape:version="0.92.1 r15371"
   sodipodi:docname="Enkei company logo.svg">
  <defs
     id="defs5919">
    <clipPath
       id="clip2">
      <path
         inkscape:connector-curvature="0"
         d="m 156,49 h 6.05078 V 74 H 156 Z m 0,0"
         id="path568" />
    </clipPath>
    <clipPath
       id="clip1">
      <path
         inkscape:connector-curvature="0"
         d="M 42,46.199219 H 96 V 75.992188 H 42 Z m 0,0"
         id="path565" />
    </clipPath>
  </defs>
  <sodipodi:namedview
     id="base"
     pagecolor="#ffffff"
     bordercolor="#666666"
     borderopacity="1.0"
     inkscape:pageopacity="0.0"
     inkscape:pageshadow="2"
     inkscape:zoom="1"
     inkscape:cx="164.94609"
     inkscape:cy="1.7129868"
     inkscape:document-units="mm"
     inkscape:current-layer="g5760"
     showgrid="false"
     units="px"
     fit-margin-top="5"
     fit-margin-bottom="5"
     fit-margin-right="5"
     fit-margin-left="5"
     inkscape:window-width="1280"
     inkscape:window-height="972"
     inkscape:window-x="-8"
     inkscape:window-y="-8"
     inkscape:window-maximized="1" />
  <metadata
     id="metadata5922">
    <rdf:RDF>
      <cc:Work
         rdf:about="">
        <dc:format>image/svg+xml</dc:format>
        <dc:type
           rdf:resource="http://purl.org/dc/dcmitype/StillImage" />
        <dc:title />
      </cc:Work>
    </rdf:RDF>
  </metadata>
  <g
     inkscape:label="Layer 1"
     inkscape:groupmode="layer"
     id="layer1"
     transform="translate(-15.370073,-97.411309)">
    <path
       inkscape:connector-curvature="0"
       style="fill:#231f20;fill-opacity:1;fill-rule:nonzero;stroke:none;stroke-width:0.55062813"
       d="m 72.38594,112.98264 v -12.89675 l 0.04729,-0.129079 0.114,-0.03228 h 5.955821 l 0.118296,0.04308 0.0215,0.118319 v 2.26703 l -0.03224,0.11196 -0.126897,0.028 h -2.847778 l -0.08388,0.0323 -0.03654,0.10752 v 1.96591 l 0.0108,0.11832 0.109692,0.0215 h 2.68646 l 0.105384,0.0365 0.0344,0.10536 v 2.16595 l -0.0215,0.15701 -0.137651,0.0238 h -2.667104 l -0.09679,0.0215 -0.02366,0.0967 v 3.06072 l 0.02366,0.086 0.06668,0.0238 h 2.897249 l 0.118296,0.0238 0.0215,0.13548 v 2.30792 l -0.0215,0.15702 -0.137666,0.0238 h -5.876229 l -0.197887,-0.0238 z m 0,0"
       id="path5756" />
    <g
       transform="matrix(0.55062819,0,0,0.55062819,-6.6550142,72.862062)"
       clip-path="url(#clip1)"
       id="g5760"
       style="clip-rule:nonzero;fill:#0066b2;fill-opacity:1">
      <path
         inkscape:connector-curvature="0"
         style="fill:#0066b2;fill-opacity:1;fill-rule:nonzero;stroke:none"
         d="m 63.855469,54.941406 -13.210938,8.039063 0.09766,5.65625 25.859375,-15.734375 c 0,0 2.429687,-1.289063 4.953125,-1.09375 2.527343,0.195312 4.617187,0.972656 6.191406,2.40625 0.804687,0.726562 3.070312,2.773437 3.136719,6.699219 0.04687,2.988281 -0.804688,4.980468 -1.777344,6.144531 -0.96875,1.164062 -3.324219,3.921875 -8.351563,3.835937 -4.226562,-0.07031 -6.605468,-3.058593 -6.605468,-3.058593 L 87.601563,59.75 87.457031,54.214844 69.464844,65.140625 c 0,0 0.457031,4.425781 0.410156,5.21875 2.722656,2.722656 4.46875,3.960938 6.507813,4.542969 2.371093,0.675781 6.191406,1.042969 9.253906,0.144531 4.773437,-1.402344 7.996094,-5.316406 9.03125,-8.011719 1.09375,-2.839843 2.039062,-8.667968 -0.363281,-12.382812 C 91.605469,50.476563 88.359375,47.945313 83.085938,47.148438 76.820313,46.199219 72.597656,49.625 68.226563,52.246094 65.964844,49.769531 62.316406,47.03125 57.25,47.050781 c -6.070312,0.02344 -9.65625,2.984375 -11.679687,5.414063 -1.824219,2.1875 -3.570313,6.265625 -3.085938,10.707031 0.503906,4.59375 2.71875,6.996094 5.246094,9.132813 2.527344,2.136718 5.441406,3.691406 10.296875,3.496093 4.855469,-0.195312 12.3125,-5.851562 12.3125,-5.851562 l -0.292969,-5.246094 c 0,0 -8.886719,6.484375 -13.40625,6.265625 -4.4375,-0.214844 -7.582031,-3.414062 -8.667969,-5.972656 -1.019531,-2.40625 -0.871093,-5.464844 0.292969,-7.796875 2.425781,-4.855469 7.214844,-5.539063 9.105469,-5.390625 2.429687,0.195312 5.535156,1.359375 6.484375,3.132812"
         id="path5758" />
    </g>
    <path
       inkscape:connector-curvature="0"
       style="fill:#231f20;fill-opacity:1;fill-rule:nonzero;stroke:none;stroke-width:0.55062813"
       d="m 48.721833,113.002 v -12.89674 l 0.04516,-0.126897 0.114,-0.03228 h 5.957968 l 0.116136,0.04092 0.02368,0.118317 v 2.26703 l -0.03442,0.11196 -0.126895,0.028 h -2.847783 l -0.08388,0.0323 -0.03655,0.10968 v 1.96376 l 0.01296,0.11832 0.107544,0.0238 h 2.688614 l 0.103236,0.0343 0.03655,0.10536 v 2.16596 l -0.02368,0.157 -0.13765,0.0238 h -2.667104 l -0.09679,0.0238 -0.02368,0.0967 v 3.05858 l 0.02368,0.086 0.06668,0.0238 h 2.899404 l 0.116136,0.0238 0.02368,0.13766 v 2.30576 l -0.02368,0.15702 -0.13765,0.0238 h -5.87624 l -0.197879,-0.0238 z m 0,0"
       id="path5762" />
    <path
       inkscape:connector-curvature="0"
       style="fill:#231f20;fill-opacity:1;fill-rule:nonzero;stroke:none;stroke-width:0.55062813"
       d="m 55.860645,113.002 v -12.91611 l 0.05808,-0.105355 0.163466,-0.03432 h 2.58752 c 0.754961,0.492555 1.062542,1.823965 1.522831,1.845465 v -1.70565 l 0.05808,-0.116163 0.141958,-0.02376 h 2.688617 l 0.135511,0.02376 0.02366,0.135483 v 12.87738 l -0.02366,0.17637 -0.135511,0.0238 h -2.688622 l -0.165622,-0.0238 -0.0344,-0.15702 v -3.75115 c -0.139804,-1.78524 -0.561385,-3.02844 -1.202349,-4.01141 v 7.76256 l -0.02366,0.15702 -0.13765,0.0238 h -2.727327 l -0.182826,-0.0238 z m 0,0"
       id="path5764" />
    <path
       inkscape:connector-curvature="0"
       style="fill:#231f20;fill-opacity:1;fill-rule:nonzero;stroke:none;stroke-width:0.55062813"
       d="m 64.343762,99.946083 -0.16132,0.03432 -0.05808,0.105357 v 12.91611 l 0.0215,0.15702 0.159164,0.0238 h 2.867138 l 0.13765,-0.0238 0.02366,-0.15702 v -5.07395 c 0.07314,-0.28391 0.434484,-0.55708 0.580741,-0.54203 0.180678,0.0193 0.481801,0.66248 0.582888,1.64543 0.07528,0.74207 0.159171,3.97055 0.159171,3.97055 l 0.043,0.15702 0.178529,0.0238 h 2.667103 l 0.13765,-0.0238 0.0215,-0.15702 -0.12045,-2.46707 c 0,0 -0.178522,-1.86483 -0.421572,-2.84778 -0.23872,-0.98295 -0.380677,-1.42389 -0.501126,-1.72501 -0.120449,-0.30112 -0.359197,-0.76142 -0.359197,-0.76142 0,0 0.01937,-0.18927 0.07958,-0.30112 0.339842,-0.42158 0.460289,-0.82164 0.58074,-1.1034 0.12045,-0.28178 0.281767,-0.86252 0.361351,-1.28409 0.08172,-0.42158 0.260254,-2.42622 0.260254,-2.42622 l -0.043,-0.116157 -0.11616,-0.02376 H 68.73588 l -0.124757,0.02376 -0.0344,0.116157 v 0.78294 c 0,0.2409 -0.07958,0.66246 -0.28177,1.42389 -0.180674,0.68612 -0.339842,1.1034 -0.720552,1.78524 -0.06238,0.13984 -0.180669,0.0386 -0.180669,0.0386 l -0.06023,-4.03078 -0.02366,-0.116159 -0.137666,-0.02376 z m 0,0"
       id="path5766" />
    <g
       transform="matrix(0.55062819,0,0,0.55062819,-6.6550142,72.862062)"
       clip-path="url(#clip2)"
       id="g5770"
       style="clip-rule:nonzero;fill:#231f20;fill-opacity:1">
      <path
         inkscape:connector-curvature="0"
         style="fill:#231f20;fill-opacity:1;fill-rule:nonzero;stroke:none"
         d="m 156.625,49.1875 h 5.13672 l 0.24609,0.04297 0.043,0.210937 v 23.457032 l -0.043,0.285156 -0.24609,0.04297 h -5.02735 l -0.32421,-0.04297 -0.043,-0.285156 V 49.441406 l 0.043,-0.210937 z m 0,0"
         id="path5768" />
    </g>
  </g>
</svg>
