<?xml version="1.0" standalone="no"?>
<!DOCTYPE svg PUBLIC "-//W3C//DTD SVG 20010904//EN"
 "http://www.w3.org/TR/2001/REC-SVG-20010904/DTD/svg10.dtd">
<svg version="1.0" xmlns="http://www.w3.org/2000/svg"
 width="1603.000000pt" height="287.000000pt" viewBox="0 0 1603.000000 287.000000"
 preserveAspectRatio="xMidYMid meet">

<g transform="translate(0.000000,287.000000) scale(0.100000,-0.100000)"
fill="#000000" stroke="none">
<path d="M1950 2115 l0 -145 155 0 155 0 0 145 0 145 -155 0 -155 0 0 -145z"/>
<path d="M6900 2115 l0 -145 155 0 155 0 0 145 0 145 -155 0 -155 0 0 -145z"/>
<path d="M440 1440 l0 -800 165 0 165 0 0 360 0 360 310 0 310 0 0 -360 0
-360 165 0 165 0 0 800 0 800 -165 0 -165 0 0 -300 0 -300 -310 0 -310 0 0
300 0 300 -165 0 -165 0 0 -800z"/>
<path d="M5620 1440 l0 -800 155 0 155 0 0 360 c0 222 4 378 11 410 24 113
116 183 238 182 73 0 111 -14 148 -54 46 -49 47 -61 51 -491 l3 -408 152 3
152 3 0 460 c0 458 0 460 -23 517 -63 157 -235 251 -425 234 -119 -11 -223
-62 -277 -138 l-30 -41 0 281 0 282 -155 0 -155 0 0 -800z"/>
<path d="M8570 2218 c-12 -28 -560 -1569 -560 -1574 0 -2 78 -4 174 -4 l173 0
58 165 57 165 296 -2 295 -3 46 -150 c26 -83 50 -156 54 -163 6 -9 54 -12 183
-12 96 0 174 3 174 8 0 4 -124 364 -277 799 l-278 793 -193 0 c-190 0 -193 0
-202 -22z m300 -661 c51 -163 91 -299 88 -302 -3 -3 -93 -4 -200 -3 l-195 3
101 312 c55 172 103 307 107 300 4 -6 48 -146 99 -310z"/>
<path d="M2550 1990 l0 -160 -80 0 -80 0 0 -115 0 -115 80 0 80 0 0 -391 c0
-429 2 -451 56 -505 54 -53 117 -68 289 -69 l150 0 3 116 3 117 -82 4 c-66 3
-83 7 -95 23 -11 15 -14 82 -14 362 l0 343 95 0 95 0 0 115 0 115 -95 0 -95 0
0 160 0 160 -155 0 -155 0 0 -160z"/>
<path d="M10810 1990 l0 -160 -80 0 -81 0 3 -112 3 -113 78 -3 77 -3 0 -385
c0 -426 3 -457 56 -509 54 -54 116 -69 289 -70 l150 0 3 116 3 117 -82 4 c-66
3 -83 7 -95 23 -11 15 -14 82 -14 362 l0 343 95 0 95 0 0 115 0 115 -95 0 -95
0 0 160 0 160 -155 0 -155 0 0 -160z"/>
<path d="M3585 1850 c-119 -19 -202 -58 -262 -123 -51 -55 -76 -104 -97 -184
-29 -110 -38 -103 130 -100 l146 2 20 52 c32 87 98 120 220 110 114 -10 162
-53 156 -140 -4 -53 -43 -82 -125 -92 -190 -23 -348 -56 -407 -85 -116 -55
-182 -156 -193 -298 -15 -202 91 -338 291 -373 136 -23 296 24 395 116 49 46
61 46 61 -3 0 -9 5 -34 11 -55 l10 -37 167 2 c165 3 167 3 170 26 2 13 -3 25
-13 28 -9 4 -23 21 -33 38 -15 27 -18 79 -22 446 -5 410 -5 416 -29 467 -40
90 -126 154 -256 190 -63 18 -261 25 -340 13z m315 -735 c0 -59 -5 -108 -14
-128 -35 -82 -146 -147 -252 -147 -101 0 -148 45 -148 142 -1 102 52 143 228
178 59 11 122 27 140 35 17 7 34 14 39 14 4 1 7 -42 7 -94z"/>
<path d="M4813 1849 c-134 -22 -258 -100 -329 -206 -135 -204 -149 -588 -27
-790 68 -115 162 -185 294 -219 78 -21 243 -23 319 -5 203 49 346 203 385 414
l7 38 -157 -3 -156 -3 -18 -53 c-35 -103 -122 -160 -228 -149 -122 13 -186 99
-205 276 -14 129 -1 230 43 319 35 72 77 105 152 122 115 25 208 -30 242 -142
l12 -43 157 -3 156 -3 0 24 c0 39 -28 134 -56 189 -36 70 -120 150 -196 187
-113 53 -262 72 -395 50z"/>
<path d="M9945 1850 c-209 -38 -336 -164 -352 -348 -19 -222 95 -321 457 -397
216 -45 270 -72 270 -136 0 -42 -52 -93 -111 -109 -52 -15 -190 -8 -234 11
-51 22 -95 70 -102 111 l-6 38 -160 0 -160 0 6 -50 c9 -77 53 -163 109 -216
98 -91 245 -136 448 -136 192 -1 313 38 411 129 73 68 102 136 107 248 4 78 1
99 -18 143 -49 114 -162 178 -410 232 -261 57 -305 78 -303 146 1 44 33 80 82
94 47 13 156 13 203 0 43 -12 93 -66 103 -109 l7 -31 154 0 155 0 -7 38 c-19
105 -52 169 -120 232 -81 74 -189 109 -364 115 -63 2 -137 0 -165 -5z"/>
<path d="M11795 1854 c-123 -19 -233 -74 -308 -153 -62 -65 -95 -124 -129
-231 -20 -65 -23 -95 -23 -230 0 -131 4 -167 23 -235 32 -111 76 -187 143
-249 107 -99 225 -139 409 -139 98 0 126 4 193 26 158 55 258 148 316 296 l21
51 -165 0 c-138 0 -165 -2 -165 -15 0 -29 -69 -84 -126 -101 -122 -35 -252 15
-304 116 -15 30 -40 123 -40 150 0 6 156 10 405 10 l405 0 0 76 c0 150 -40
310 -100 404 -63 98 -170 175 -285 207 -53 14 -219 25 -270 17z m221 -290 c53
-32 97 -104 110 -176 l6 -38 -242 0 -242 0 7 38 c11 63 51 138 88 166 48 37
80 46 158 43 54 -2 76 -8 115 -33z"/>
<path d="M13112 1849 c-85 -16 -164 -74 -234 -170 -17 -23 -17 -22 -18 64 l0
87 -145 0 -145 0 0 -595 0 -596 153 3 152 3 5 410 5 410 25 44 c34 60 84 85
166 84 103 -1 156 -44 174 -142 6 -30 10 -220 10 -433 l0 -379 153 3 152 3 5
405 5 405 25 45 c33 59 91 91 168 93 76 2 118 -23 152 -88 l25 -49 3 -408 3
-408 155 0 154 0 0 435 c0 283 -4 452 -11 487 -33 153 -148 260 -313 289 -151
26 -277 -19 -365 -131 l-38 -48 -41 54 c-23 29 -59 65 -82 80 -70 47 -191 64
-298 43z"/>
<path d="M14895 1854 c-258 -42 -434 -200 -491 -440 -12 -53 -15 -102 -11
-209 4 -121 8 -150 32 -215 36 -98 79 -163 149 -227 108 -99 243 -146 416
-146 284 0 480 133 572 390 28 80 36 298 14 400 -44 209 -198 373 -401 427
-62 17 -227 28 -280 20z m222 -286 c62 -29 110 -90 135 -171 17 -57 20 -87 16
-185 -3 -101 -8 -125 -32 -177 -34 -76 -58 -102 -121 -131 -70 -33 -180 -33
-250 0 -63 29 -87 55 -121 131 -24 51 -28 77 -32 173 -7 179 32 284 127 347
70 47 194 53 278 13z"/>
<path d="M1950 1235 l0 -596 153 3 152 3 3 593 2 592 -155 0 -155 0 0 -595z"/>
<path d="M6900 1235 l0 -596 153 3 152 3 3 593 2 592 -155 0 -155 0 0 -595z"/>
</g>
</svg>
