<?xml version="1.0" standalone="no"?>
<!DOCTYPE svg PUBLIC "-//W3C//DTD SVG 20010904//EN"
 "http://www.w3.org/TR/2001/REC-SVG-20010904/DTD/svg10.dtd">
<svg version="1.0" xmlns="http://www.w3.org/2000/svg"
 width="239.000000pt" height="120.000000pt" viewBox="0 0 190.000000 150.000000"
 preserveAspectRatio="xMidYMid meet">

<g transform="translate(0.000000,120.000000) scale(0.0800000,-0.0800000)"
fill="#E7424A" stroke="none">
<path d="M0 600 l0 -600 1195 0 1195 0 0 600 0 600 -1195 0 -1195 0 0 -600z
m370 517 c0 -1 -13 -40 -29 -87 -16 -47 -27 -87 -25 -89 11 -11 137 108 157
149 12 24 16 25 130 28 90 2 117 0 117 -10 0 -20 -45 -94 -98 -162 l-48 -61
23 -40 c39 -68 103 -205 103 -221 0 -8 4 -23 9 -32 5 -9 12 -39 16 -65 l7 -48
-118 3 -118 3 -17 65 c-18 73 -33 108 -66 162 l-23 37 -45 -27 c-52 -31 -52
-33 -4 -157 16 -42 29 -78 29 -81 0 -2 -67 -4 -150 -4 -82 0 -150 2 -150 4 0
2 10 35 22 72 20 59 23 89 22 214 -1 148 -8 183 -69 333 -7 16 5 17 159 17 91
0 166 -1 166 -3z m690 -10 c0 -8 -8 -38 -19 -68 -10 -31 -22 -83 -26 -117 l-7
-62 77 0 78 0 -6 48 c-3 27 -17 82 -31 122 -14 40 -26 77 -26 82 0 4 70 8 155
8 172 0 165 3 139 -69 -24 -69 -44 -190 -44 -263 0 -94 16 -167 65 -290 7 -17
-4 -18 -144 -18 -83 0 -151 3 -151 8 0 4 9 36 20 70 11 35 20 77 20 93 l0 29
-71 0 -72 0 5 -38 c3 -21 17 -66 31 -100 l25 -62 -153 0 -153 0 31 88 c27 79
30 99 31 217 1 143 -15 219 -60 287 -13 21 -24 40 -24 43 0 3 70 5 155 5 123
0 155 -3 155 -13z m690 1 c0 -7 -7 -31 -15 -53 -8 -22 -14 -46 -15 -53 0 -20
56 15 111 71 l48 47 110 0 c83 0 111 -3 111 -13 0 -21 -40 -88 -86 -145 -24
-30 -44 -59 -44 -66 0 -7 16 -39 36 -72 39 -64 114 -272 114 -316 l0 -28 -115
0 -115 0 -6 28 c-25 113 -86 252 -111 252 -15 0 -64 -29 -75 -44 -9 -13 -1
-56 28 -144 13 -40 24 -77 24 -82 0 -6 -57 -10 -146 -10 -135 0 -146 1 -141
18 52 156 59 191 60 287 1 108 -12 162 -63 267 -16 31 -26 59 -22 62 3 3 74 6
159 6 116 0 153 -3 153 -12z m530 -434 c42 -17 70 -55 70 -94 0 -34 -29 -80
-56 -90 -75 -29 -144 11 -144 84 0 48 13 72 53 96 38 24 28 23 77 4z m-22
-277 c14 -13 22 -32 22 -53 0 -27 -4 -32 -27 -37 -33 -6 -53 7 -53 35 0 13 -6
18 -17 16 -31 -6 -24 -27 26 -76 71 -69 79 -125 26 -178 -19 -19 -34 -24 -76
-24 -68 0 -89 18 -89 75 0 38 3 43 27 48 37 7 53 -1 53 -28 0 -30 14 -39 30
-20 14 16 12 18 -55 93 -66 72 -47 146 45 175 24 8 63 -4 88 -26z m-1955 11
c33 -17 46 -39 47 -75 0 -31 -2 -33 -35 -33 -28 0 -35 4 -35 19 0 26 -23 44
-38 29 -18 -18 -16 -21 40 -77 46 -46 52 -58 52 -91 -2 -76 -61 -120 -139
-106 -39 8 -67 54 -58 99 5 25 9 28 42 25 23 -2 36 -8 37 -18 2 -35 5 -40 19
-40 30 0 15 44 -31 91 -50 51 -61 94 -34 143 21 40 89 58 133 34z m432 -10
c28 -21 28 -22 21 -107 -13 -175 -30 -209 -108 -218 -41 -5 -50 -2 -74 22 -27
27 -27 28 -21 123 4 54 9 106 13 118 5 18 2 20 -30 16 -39 -5 -35 10 -53 -187
l-8 -80 -44 -3 -43 -3 5 63 c4 35 9 96 13 136 l6 72 -26 0 c-22 0 -26 4 -26
30 l0 30 105 0 c102 0 105 -1 105 -22 1 -20 2 -21 13 -7 34 44 108 52 152 17z
m200 10 c28 -12 38 -39 33 -84 -3 -26 -8 -29 -40 -32 -36 -3 -38 -2 -38 27 0
16 -4 32 -9 36 -18 11 -32 -36 -38 -127 -5 -75 -4 -90 8 -86 12 4 21 24 35 76
5 18 61 15 72 -5 7 -11 12 12 17 78 8 109 16 129 50 127 13 -1 21 -6 19 -10
-3 -4 0 -8 7 -8 7 0 10 -13 7 -35 -5 -46 5 -44 27 5 18 41 49 58 80 46 13 -4
9 -18 -20 -75 l-36 -70 21 -86 c11 -48 20 -91 20 -96 0 -6 -16 -9 -36 -7 -35
3 -38 6 -54 58 -15 48 -18 52 -23 30 -4 -14 -8 -38 -9 -55 -3 -27 -6 -30 -38
-30 -34 0 -35 1 -32 35 l3 35 -22 -33 c-38 -58 -112 -70 -156 -26 -25 25 -25
28 -19 113 10 122 21 162 51 189 29 25 79 29 120 10z m505 -8 c44 -44 33 -114
-18 -108 -21 2 -28 9 -30 31 -2 18 -9 27 -22 27 -15 0 -20 -11 -25 -67 -11
-110 -11 -136 3 -140 20 -8 32 39 15 59 -10 11 -13 26 -9 43 6 22 12 25 51 25
24 0 46 -4 50 -9 5 -9 -9 -169 -16 -175 -2 -2 -34 -6 -71 -10 -60 -6 -70 -4
-88 14 -23 23 -26 92 -10 215 7 57 14 74 35 92 35 30 106 32 135 3z m378 8 c5
-7 15 -76 23 -153 7 -77 13 -135 15 -130 1 6 8 70 15 143 8 85 17 136 26 143
21 18 144 5 160 -17 18 -24 16 -95 -2 -122 -12 -16 -13 -27 -6 -40 6 -11 7
-45 3 -83 l-7 -64 -37 -3 -38 -3 0 70 c0 39 -4 71 -9 71 -9 0 -15 -29 -23
-110 -3 -24 -5 -25 -83 -25 -80 0 -80 0 -83 28 -5 38 -37 36 -51 -3 -8 -24
-16 -30 -40 -30 -16 0 -32 4 -35 9 -8 13 82 313 97 323 19 12 63 9 75 -4z
m-178 -28 c0 -29 -2 -30 -45 -30 -45 0 -45 0 -45 -35 0 -34 1 -35 40 -35 38 0
40 -2 40 -30 0 -28 -2 -30 -40 -30 -39 0 -40 -1 -40 -35 0 -34 1 -35 39 -35
46 0 51 -5 44 -43 -5 -27 -6 -27 -89 -27 l-84 0 0 37 c0 43 20 262 26 281 2 8
27 12 79 12 l75 0 0 -30z"/>
<path d="M2186 640 c-23 -28 -26 -39 -22 -73 3 -22 7 -41 8 -41 2 -1 11 -8 21
-15 55 -43 130 -10 140 62 8 50 -22 86 -79 94 -36 5 -43 2 -68 -27z m105 -16
c10 -12 10 -20 1 -35 -7 -11 -10 -30 -6 -44 8 -31 -8 -33 -21 -3 -15 32 -35
35 -35 4 0 -14 -4 -26 -10 -26 -6 0 -10 27 -10 60 l0 60 34 0 c18 0 39 -7 47
-16z"/>
<path d="M2230 610 c0 -5 9 -10 20 -10 11 0 20 5 20 10 0 6 -9 10 -20 10 -11
0 -20 -4 -20 -10z"/>
<path d="M653 348 c-15 -18 -34 -191 -22 -203 18 -19 31 15 41 105 10 92 3
126 -19 98z"/>
<path d="M1960 321 c0 -32 3 -39 16 -34 18 7 16 64 -3 71 -9 2 -13 -9 -13 -37z"/>
<path d="M1756 294 c-10 -25 -7 -94 4 -94 6 0 10 25 10 55 0 57 -3 66 -14 39z"/>
</g>
</svg>
