<?xml version="1.0" standalone="no"?>
<!DOCTYPE svg PUBLIC "-//W3C//DTD SVG 20010904//EN"
 "http://www.w3.org/TR/2001/REC-SVG-20010904/DTD/svg10.dtd">
<svg version="1.0" xmlns="http://www.w3.org/2000/svg"
 width="1646.000000pt" height="622.000000pt" viewBox="0 0 1646.000000 622.000000"
 preserveAspectRatio="xMidYMid meet">

<g transform="translate(0.000000,622.000000) scale(0.100000,-0.100000)"
fill="#3A2063" stroke="none">
<path d="M202 6078 c-9 -9 -12 -189 -12 -755 0 -724 0 -743 19 -753 13 -7 377
-10 1109 -10 1023 0 1091 1 1111 18 22 18 104 219 95 233 -3 5 -266 9 -584 9
-318 0 -585 3 -594 6 -14 5 -16 57 -16 483 0 262 4 482 8 488 6 10 142 13 603
15 l594 3 -3 25 c-5 36 -63 178 -87 214 l-21 31 -1105 3 c-851 2 -1108 -1
-1117 -10z"/>
<path d="M2876 6074 c-3 -9 -6 -80 -6 -158 l0 -142 -32 -31 c-78 -73 -97 -76
-503 -82 -346 -6 -362 -7 -405 -28 -97 -48 -188 -169 -204 -269 -19 -126 71
-296 188 -356 51 -26 251 -45 586 -56 265 -9 303 -19 373 -90 45 -46 72 -139
62 -213 -5 -33 -3 -54 5 -64 11 -13 85 -15 519 -15 381 0 510 3 519 12 17 17
17 1479 0 1496 -9 9 -146 12 -554 12 -485 0 -542 -2 -548 -16z"/>
<path d="M6350 6064 c-6 -14 -10 -48 -10 -75 l0 -49 2475 0 c2436 0 2474 0
2485 -19 6 -13 10 -215 10 -585 0 -553 0 -566 -20 -586 -20 -20 -33 -20 -2485
-20 l-2465 0 0 -68 c0 -45 5 -75 16 -90 l15 -22 2964 0 2964 0 15 22 c14 20
16 107 16 745 0 527 -3 729 -12 748 l-11 25 -2974 0 -2973 0 -10 -26z"/>
<path d="M12502 6078 c-16 -16 -18 -1469 -2 -1499 10 -18 27 -19 551 -19 339
0 547 4 559 10 16 8 18 22 18 97 -2 136 40 208 146 254 45 20 75 23 271 30
285 10 469 31 524 58 84 43 149 131 177 240 28 111 1 200 -93 302 -97 104 -92
103 -503 109 l-355 5 -50 27 c-38 20 -134 105 -146 130 -1 2 -5 62 -8 133 l-6
130 -535 3 c-409 2 -539 -1 -548 -10z"/>
<path d="M13997 6073 c-34 -38 -107 -205 -107 -244 0 -18 22 -19 598 -21 l597
-3 0 -490 0 -490 -593 -3 -593 -2 6 -23 c22 -74 80 -205 97 -219 19 -17 87
-18 1117 -18 840 0 1100 3 1109 12 17 17 17 1489 0 1506 -9 9 -270 12 -1113
12 -1037 0 -1103 -1 -1118 -17z"/>
<path d="M4180 5831 c-15 -30 -14 -953 2 -969 9 -9 678 -12 2949 -12 2669 0
2937 1 2943 16 3 9 6 228 6 488 0 354 -3 475 -12 484 -9 9 -677 12 -2945 12
-2889 0 -2932 0 -2943 -19z"/>
<path d="M2075 4261 c-22 -10 -48 -27 -57 -37 -53 -60 -65 -189 -25 -264 64
-121 260 -121 324 0 42 79 25 220 -33 272 -54 48 -142 60 -209 29z m152 -51
c83 -50 93 -192 18 -267 -28 -28 -40 -33 -81 -33 -82 0 -131 43 -148 129 -12
67 32 158 89 181 35 15 89 11 122 -10z"/>
<path d="M3312 4273 c-13 -2 -43 -23 -67 -46 -71 -69 -85 -164 -37 -258 21
-42 37 -59 72 -76 80 -41 192 -21 237 43 68 96 45 260 -44 315 -33 20 -117 32
-161 22z m129 -66 c67 -44 88 -141 49 -222 -24 -50 -65 -75 -123 -75 -76 0
-127 62 -127 154 0 132 105 207 201 143z"/>
<path d="M4682 4272 c-37 -11 -91 -61 -108 -100 -25 -59 -22 -151 7 -209 70
-137 289 -121 338 26 27 81 4 199 -47 244 -42 38 -130 56 -190 39z m127 -60
c48 -26 71 -74 71 -147 0 -98 -50 -155 -137 -155 -82 0 -137 64 -137 160 -1
122 104 195 203 142z"/>
<path d="M5643 4261 c-65 -30 -97 -87 -101 -180 -3 -64 1 -83 20 -121 32 -62
77 -90 146 -90 41 0 66 7 98 25 42 24 43 25 49 5 3 -11 15 -20 26 -20 18 0 19
8 19 105 l0 105 -90 0 c-89 0 -90 0 -90 -25 0 -24 2 -25 66 -25 l67 0 -7 -32
c-3 -20 -20 -46 -43 -65 -29 -27 -45 -33 -80 -33 -92 0 -133 50 -133 163 0
107 51 162 145 154 42 -4 54 -10 81 -41 17 -20 40 -36 52 -36 19 0 20 3 11 29
-20 56 -92 101 -163 101 -17 0 -50 -9 -73 -19z"/>
<path d="M9409 4271 c-73 -24 -117 -84 -126 -175 -14 -133 63 -225 188 -226
109 0 195 96 187 210 -8 112 -73 188 -169 195 -30 3 -66 1 -80 -4z m122 -58
c85 -50 90 -225 9 -283 -37 -26 -103 -26 -145 0 -76 47 -87 188 -22 259 41 44
107 54 158 24z"/>
<path d="M10227 4266 c-82 -30 -122 -96 -121 -201 0 -79 16 -118 64 -158 55
-47 170 -50 216 -6 21 20 27 21 34 9 5 -8 10 -18 10 -22 0 -5 7 -8 15 -8 12 0
15 18 15 105 l0 105 -85 0 c-84 0 -85 0 -85 -25 0 -24 3 -25 60 -25 l60 0 0
-31 c0 -22 -10 -41 -34 -65 -29 -29 -41 -34 -80 -34 -87 0 -122 35 -133 132
-7 59 12 130 42 158 50 47 177 31 191 -24 4 -19 13 -26 30 -26 29 0 30 15 4
58 -23 37 -88 72 -135 71 -16 0 -47 -6 -68 -13z"/>
<path d="M13240 4262 c-50 -25 -76 -81 -61 -132 12 -41 25 -49 124 -74 83 -21
107 -39 107 -81 0 -46 -29 -65 -98 -65 -46 0 -58 4 -83 29 -16 16 -29 37 -29
45 0 10 -9 16 -25 16 -23 0 -25 -3 -19 -27 18 -77 70 -107 177 -101 63 3 72 7
98 36 23 25 29 42 29 76 0 68 -24 89 -127 115 -48 12 -93 27 -100 33 -38 32
13 98 75 98 45 0 92 -31 92 -61 0 -14 7 -19 26 -19 25 0 26 2 21 36 -8 46 -30
71 -76 84 -52 14 -91 12 -131 -8z"/>
<path d="M14735 4265 c-152 -54 -154 -327 -2 -384 47 -18 119 -13 167 12 77
38 112 131 89 236 -25 120 -135 178 -254 136z m135 -53 c42 -22 80 -90 80
-142 -1 -88 -66 -160 -145 -160 -84 0 -135 61 -135 161 0 122 100 193 200 141z"/>
<path d="M16013 4265 c-41 -18 -68 -59 -68 -107 0 -53 26 -74 119 -98 104 -26
126 -41 126 -85 0 -46 -29 -65 -98 -65 -46 0 -58 4 -83 29 -16 16 -29 37 -29
45 0 10 -9 16 -25 16 -23 0 -25 -3 -19 -27 16 -72 65 -103 159 -103 92 0 145
40 145 111 0 61 -35 93 -132 119 -46 12 -89 27 -95 32 -20 17 -15 47 13 75 22
22 32 25 70 20 49 -5 84 -30 84 -59 0 -13 7 -18 25 -18 19 0 25 5 25 20 0 83
-122 137 -217 95z"/>
<path d="M190 4075 l0 -195 98 0 c120 0 156 15 192 80 34 62 35 166 2 228 -33
62 -80 81 -199 82 l-93 0 0 -195z m215 123 c73 -57 73 -199 0 -256 -22 -18
-41 -22 -96 -22 l-69 0 0 150 0 150 69 0 c55 0 74 -4 96 -22z"/>
<path d="M590 4075 l0 -195 145 0 c138 0 145 1 145 20 0 19 -7 20 -120 20
l-120 0 0 65 0 65 105 0 105 0 0 25 0 25 -105 0 -105 0 0 60 0 60 115 0 115 0
0 25 0 25 -140 0 -140 0 0 -195z"/>
<path d="M919 4248 c5 -13 36 -93 69 -178 33 -85 63 -163 67 -173 5 -12 16
-17 33 -15 24 3 32 19 99 193 40 105 73 191 73 193 0 1 -13 2 -28 2 -28 0 -30
-3 -82 -165 -30 -91 -56 -165 -59 -165 -3 0 -31 73 -62 163 -56 161 -56 162
-88 165 -29 3 -30 2 -22 -20z"/>
<path d="M1320 4075 l0 -195 145 0 c138 0 145 1 145 20 0 19 -7 20 -120 20
l-120 0 0 65 0 65 105 0 105 0 0 25 0 25 -105 0 -105 0 0 60 0 60 115 0 115 0
0 25 0 25 -140 0 -140 0 0 -195z"/>
<path d="M1680 4075 l0 -195 125 0 c118 0 125 1 125 20 0 19 -7 20 -100 20
l-100 0 0 175 0 175 -25 0 -25 0 0 -195z"/>
<path d="M2420 4075 l0 -195 25 0 c25 0 25 1 25 79 l0 79 90 4 c102 3 125 17
140 82 12 54 -5 103 -43 126 -26 16 -51 20 -134 20 l-103 0 0 -195z m220 125
c24 -24 26 -57 4 -88 -13 -20 -24 -22 -95 -22 l-79 0 0 65 0 65 75 0 c62 0 79
-4 95 -20z"/>
<path d="M2871 4233 c13 -21 47 -76 76 -122 51 -82 53 -87 53 -158 0 -71 1
-73 25 -73 24 0 25 2 25 77 l0 77 70 112 c39 61 70 115 70 118 0 3 -11 6 -25
6 -26 0 -28 -3 -120 -149 l-27 -44 -56 97 c-50 86 -59 96 -85 96 l-29 0 23
-37z"/>
<path d="M3630 4125 c0 -166 10 -203 62 -235 43 -26 130 -27 178 -2 60 32 70
66 70 235 l0 147 -25 0 -25 0 0 -140 c0 -187 -16 -220 -109 -220 -28 0 -48 7
-68 24 l-28 24 -3 156 -3 156 -25 0 -24 0 0 -145z"/>
<path d="M4030 4075 l0 -195 25 0 c25 0 25 1 25 80 l0 80 78 0 c94 0 122 -15
122 -64 0 -19 3 -48 6 -65 6 -28 10 -31 43 -31 20 0 31 4 25 8 -6 4 -15 39
-19 77 -4 39 -14 78 -22 87 -14 15 -13 20 6 44 25 31 27 83 6 124 -20 38 -64
50 -192 50 l-103 0 0 -195z m244 129 c9 -8 16 -31 16 -49 0 -51 -27 -65 -127
-65 l-83 0 0 65 0 65 89 0 c68 0 93 -4 105 -16z"/>
<path d="M5010 4075 l0 -195 25 0 c25 0 25 1 25 80 l0 80 78 0 c102 0 113 -8
121 -91 l6 -64 35 -3 c28 -3 33 -1 23 9 -8 8 -13 38 -13 73 0 47 -4 64 -21 82
l-21 23 21 22 c15 16 21 36 21 67 0 90 -38 112 -195 112 l-105 0 0 -195z m230
135 c35 -19 33 -88 -4 -112 -6 -4 -48 -8 -93 -8 l-83 0 0 65 0 65 81 0 c44 0
89 -4 99 -10z"/>
<path d="M5400 4070 l0 -200 30 0 30 0 0 200 0 200 -30 0 -30 0 0 -200z"/>
<path d="M5980 4070 l0 -200 30 0 30 0 0 200 0 200 -30 0 -30 0 0 -200z"/>
<path d="M6130 4075 l0 -195 25 0 24 0 3 150 3 150 95 -150 c90 -141 97 -149
128 -150 l32 0 0 195 0 195 -25 0 -25 0 -2 -160 -3 -159 -99 159 c-90 146
-102 160 -128 160 l-28 0 0 -195z"/>
<path d="M6635 4258 c-5 -13 -120 -316 -136 -355 -8 -21 -6 -23 21 -23 25 0
31 6 48 53 l20 52 80 3 81 3 16 -56 c15 -50 19 -55 45 -55 l29 0 -15 43 c-9
23 -37 103 -64 177 -26 74 -51 143 -55 153 -8 20 -63 24 -70 5z m67 -135 c14
-43 25 -79 23 -81 -1 -2 -30 -2 -63 0 l-60 3 31 78 c16 42 33 77 36 77 3 0 18
-35 33 -77z"/>
<path d="M6890 4075 l0 -195 125 0 c118 0 125 1 125 20 0 19 -7 20 -100 20
l-100 0 0 175 0 175 -25 0 -25 0 0 -195z"/>
<path d="M7200 4070 l0 -200 35 0 35 0 0 200 0 200 -35 0 -35 0 0 -200z"/>
<path d="M7310 4245 c0 -24 2 -25 70 -25 l70 0 0 -170 0 -170 25 0 25 0 0 170
0 170 65 0 c63 0 65 1 65 25 l0 25 -160 0 -160 0 0 -25z"/>
<path d="M7660 4265 c0 -3 32 -55 70 -117 l70 -112 0 -78 c0 -77 0 -78 25 -78
24 0 25 2 25 72 0 71 0 72 68 182 38 61 72 117 76 124 5 8 -1 12 -21 12 -25 0
-35 -11 -88 -96 -47 -76 -61 -93 -70 -81 -5 8 -30 51 -55 95 -39 71 -48 82
-72 82 -16 0 -28 -2 -28 -5z"/>
<path d="M8150 4245 c0 -24 2 -25 65 -25 l65 0 0 -170 c0 -163 1 -170 20 -170
19 0 20 7 20 170 l0 170 75 0 c73 0 75 1 75 25 l0 25 -160 0 -160 0 0 -25z"/>
<path d="M8520 4075 l0 -195 25 0 c25 0 25 1 25 90 l0 90 105 0 105 0 0 -90
c0 -89 0 -90 25 -90 l25 0 0 195 0 195 -25 0 c-25 0 -25 -1 -25 -80 l0 -80
-105 0 -105 0 0 80 c0 79 0 80 -25 80 l-25 0 0 -195z"/>
<path d="M8920 4076 l0 -196 25 0 c25 0 25 1 25 80 l0 80 78 0 c103 0 115 -9
122 -92 l5 -63 34 -3 c28 -3 33 -1 24 10 -6 7 -13 44 -15 82 -3 51 -9 72 -22
81 -17 13 -17 14 3 34 43 43 38 118 -12 155 -24 18 -45 21 -148 24 l-119 4 0
-196z m234 128 c22 -22 20 -70 -4 -94 -17 -17 -33 -20 -100 -20 l-80 0 0 65 0
65 84 0 c64 0 88 -4 100 -16z"/>
<path d="M9720 4122 c0 -168 11 -204 71 -234 41 -22 117 -23 164 -4 64 27 75
60 75 234 l0 152 -25 0 -25 0 0 -151 0 -151 -29 -29 c-39 -38 -97 -40 -138 -5
l-28 24 -3 156 -3 156 -30 0 -29 0 0 -148z"/>
<path d="M10540 4075 l0 -195 30 0 30 0 0 90 0 91 103 -3 102 -3 3 -87 c3 -80
5 -88 22 -88 19 0 20 8 20 195 0 188 -1 195 -20 195 -18 0 -20 -7 -20 -80 l0
-80 -105 0 -105 0 0 80 0 80 -30 0 -30 0 0 -195z"/>
<path d="M11100 4118 c0 -102 4 -161 13 -178 45 -90 207 -94 271 -7 19 25 21
46 24 183 l4 154 -25 0 -25 0 -4 -151 -3 -151 -33 -29 c-42 -38 -98 -40 -139
-5 -28 24 -28 25 -33 178 -5 149 -6 153 -27 156 -23 3 -23 3 -23 -150z"/>
<path d="M11500 4075 l0 -195 25 0 24 0 3 150 3 150 95 -150 c90 -142 97 -149
128 -150 l32 0 0 195 0 195 -25 0 -25 0 0 -160 c0 -88 -3 -160 -8 -160 -4 0
-50 72 -102 160 -86 146 -97 160 -122 160 l-28 0 0 -195z"/>
<path d="M11900 4070 l0 -200 25 0 25 0 0 200 0 200 -25 0 -25 0 0 -200z"/>
<path d="M12030 4218 c118 -315 126 -333 152 -336 29 -4 20 -22 112 233 50
141 52 150 33 153 -26 5 -28 2 -89 -175 -29 -84 -56 -153 -59 -153 -3 0 -29
74 -58 165 -52 163 -53 165 -82 165 l-29 0 20 -52z"/>
<path d="M12410 4075 l0 -195 145 0 c138 0 145 1 145 20 0 19 -7 20 -115 20
l-115 0 0 65 0 65 105 0 105 0 0 25 0 25 -105 0 -105 0 0 60 0 60 115 0 115 0
0 25 0 25 -145 0 -145 0 0 -195z"/>
<path d="M12780 4075 l0 -195 25 0 c25 0 25 1 25 80 l0 80 78 0 c103 0 117
-10 125 -90 3 -34 7 -64 10 -67 3 -2 16 -3 29 -1 l24 3 -11 79 c-8 56 -16 82
-29 92 -18 13 -18 14 3 31 30 24 38 90 17 131 -21 41 -63 52 -193 52 l-103 0
0 -195z m231 135 c24 -14 26 -76 2 -102 -13 -15 -31 -18 -100 -18 l-83 0 0 65
0 65 81 0 c44 0 89 -5 100 -10z"/>
<path d="M13582 4082 c-39 -104 -72 -192 -72 -195 0 -4 10 -7 23 -7 19 0 26 9
41 55 l17 55 82 0 83 0 19 -55 c17 -50 21 -55 48 -55 19 0 28 4 25 13 -3 6
-34 94 -69 194 -64 182 -64 183 -94 183 -30 0 -31 -2 -103 -188z m122 44 c14
-37 26 -72 26 -77 0 -5 -26 -9 -59 -9 l-59 0 25 68 c13 37 26 73 29 81 6 19 9
15 38 -63z"/>
<path d="M13910 4075 l0 -195 126 0 c114 0 125 2 122 18 -3 15 -17 17 -106 20
l-102 3 0 174 c0 168 -1 175 -20 175 -19 0 -20 -7 -20 -195z"/>
<path d="M14500 4112 c0 -180 -7 -202 -64 -202 -39 0 -53 13 -58 55 -2 22 -9
31 -25 33 -21 3 -23 -1 -23 -35 1 -41 13 -63 47 -81 27 -15 95 -15 126 -1 46
21 52 43 55 222 l4 167 -31 0 -31 0 0 -158z"/>
<path d="M15070 4070 l0 -200 25 0 25 0 0 200 0 200 -25 0 -25 0 0 -200z"/>
<path d="M15220 4075 l0 -195 25 0 24 0 3 152 3 151 95 -149 c88 -137 98 -149
128 -152 l32 -3 0 195 0 196 -25 0 -25 0 0 -162 0 -163 -101 163 c-93 150
-103 162 -130 162 l-29 0 0 -195z"/>
<path d="M15580 4245 c0 -24 2 -25 65 -25 l65 0 0 -170 0 -170 25 0 25 0 0
170 0 170 70 0 c68 0 70 1 70 25 l0 25 -160 0 -160 0 0 -25z"/>
<path d="M4946 3464 c-25 -25 -10 -34 58 -34 53 0 67 -4 90 -25 82 -75 75
-198 -21 -389 -38 -75 -264 -356 -286 -356 -35 0 -37 19 -37 386 l0 362 45 26
c25 15 45 29 45 31 0 3 -182 5 -405 5 -223 0 -405 -4 -405 -8 0 -14 48 -32 85
-32 71 0 65 92 65 -976 0 -942 0 -964 -19 -974 -11 -5 -32 -10 -46 -10 -17 0
-25 -5 -23 -12 4 -10 88 -14 366 -16 386 -2 399 -1 329 43 l-32 20 -3 538 c-2
491 -1 538 14 544 17 6 91 -15 154 -45 l35 -17 5 -385 c5 -347 7 -389 23 -422
60 -120 275 -243 490 -279 87 -15 119 -4 151 51 20 33 21 54 24 330 4 315 0
380 -24 380 -10 0 -14 -15 -15 -57 -11 -561 -14 -621 -33 -642 -11 -12 -27
-21 -37 -21 -16 0 -17 24 -21 338 -5 369 -8 391 -67 485 -17 26 -50 61 -74 77
-23 17 -154 78 -290 136 -136 58 -247 111 -247 118 0 6 151 185 336 399 l336
387 158 0 c141 0 159 -2 165 -17 4 -10 85 -248 181 -529 l174 -512 0 -440 0
-441 -37 -6 c-21 -4 -44 -7 -52 -8 -8 -1 -16 -8 -19 -15 -3 -10 81 -12 412
-10 241 2 417 7 419 12 1 5 -11 14 -28 19 -69 22 -65 -2 -65 438 l0 398 136
478 c75 263 145 493 156 510 29 49 92 98 164 130 35 15 63 32 61 38 -2 6 -98
10 -273 10 -261 0 -269 -1 -269 -20 0 -20 20 -30 86 -40 42 -6 94 -39 121 -75
40 -55 37 -74 -83 -504 -62 -223 -116 -406 -119 -406 -6 0 -330 969 -330 987
0 8 24 13 68 15 59 3 67 5 67 23 0 20 -8 20 -822 23 -739 2 -823 1 -837 -14z"/>
<path d="M11312 3383 c-11 -38 -98 -414 -192 -838 -170 -770 -193 -861 -235
-945 -40 -80 -96 -113 -212 -126 -53 -7 -67 -17 -37 -28 9 -3 142 -6 296 -6
219 0 279 3 276 13 -3 7 -40 17 -90 23 -117 16 -167 48 -170 109 -1 20 120
543 128 557 8 12 372 10 379 -2 4 -6 44 -153 91 -327 63 -238 81 -320 73 -330
-7 -8 -34 -13 -71 -13 -43 0 -59 -3 -56 -12 7 -20 908 -24 908 -4 0 10 -17 15
-60 18 -37 3 -66 11 -78 21 -14 13 -82 269 -263 987 l-244 970 -210 0 -211 0
-22 -67z m43 -829 c47 -182 85 -338 85 -347 0 -15 -18 -17 -175 -17 -139 0
-175 3 -175 13 0 8 33 157 74 333 40 175 77 335 81 354 7 30 9 32 16 15 5 -11
47 -169 94 -351z"/>
<path d="M8610 3430 c0 -18 39 -30 104 -30 l64 0 11 -47 c5 -27 91 -460 191
-963 100 -503 183 -923 186 -932 5 -16 25 -18 229 -18 l224 0 6 33 c3 17 41
255 85 527 44 272 83 506 87 520 6 25 24 -78 138 -783 l48 -297 225 2 226 3
201 935 c111 514 208 945 215 956 21 33 77 55 157 61 52 4 73 10 73 19 0 12
-55 14 -305 14 -189 0 -305 -4 -305 -10 0 -14 35 -30 68 -30 41 0 123 -29 151
-54 33 -29 59 -92 63 -151 2 -36 -33 -208 -122 -603 -69 -304 -127 -547 -129
-540 -2 7 -59 324 -126 703 l-121 690 -186 3 -186 2 -6 -37 c-4 -21 -51 -319
-106 -663 -55 -344 -103 -638 -107 -655 l-6 -30 -13 31 c-37 89 -81 394 -179
1252 l-6 52 55 0 c57 0 70 12 44 38 -15 15 -948 18 -948 2z"/>
<path d="M7816 3375 c-267 -68 -455 -290 -534 -630 -47 -206 -48 -416 -2 -625
83 -372 303 -614 610 -671 59 -10 74 -9 150 10 164 43 303 136 395 265 205
288 255 726 128 1131 -78 248 -229 421 -438 501 -88 33 -220 41 -309 19z m178
-67 c14 -6 34 -23 43 -37 17 -24 18 -81 21 -816 2 -540 0 -802 -8 -827 -22
-75 -101 -109 -171 -72 -61 31 -59 8 -59 874 0 850 -1 837 51 874 27 19 87 21
123 4z"/>
<path d="M13101 1998 c-6 -35 -20 -124 -31 -198 -21 -134 -44 -223 -63 -247
-14 -19 -102 -16 -121 3 -11 10 -16 34 -16 70 0 54 0 54 -31 54 l-31 0 4 -70
c3 -59 8 -74 30 -96 36 -37 100 -43 161 -16 65 29 79 66 122 307 19 110 38
212 41 228 5 25 3 27 -24 27 -29 0 -30 -2 -41 -62z"/>
<path d="M13306 1777 c-86 -157 -156 -288 -156 -291 0 -4 15 -6 33 -4 29 3 36
10 75 86 l43 82 103 0 103 0 12 -85 13 -85 34 0 c26 0 34 4 34 18 -1 9 -18
139 -39 287 l-37 270 -31 3 c-30 3 -31 1 -187 -281z m183 -39 c1 -28 1 -28
-70 -28 -51 0 -70 3 -67 13 2 6 28 59 58 117 l54 105 12 -90 c7 -49 13 -102
13 -117z"/>
<path d="M14220 1778 c-85 -155 -156 -285 -158 -290 -2 -4 11 -8 30 -8 31 0
35 5 78 85 l45 85 102 0 101 0 12 -72 c15 -99 15 -98 53 -98 l33 0 -40 290
-40 290 -31 0 c-30 0 -35 -8 -185 -282z m183 -25 l5 -43 -79 0 c-43 0 -79 2
-79 5 0 3 28 55 63 116 l62 111 11 -73 c6 -41 14 -93 17 -116z"/>
<path d="M13742 1773 c-29 -153 -53 -282 -52 -286 0 -5 15 -7 33 -5 l32 3 19
113 19 112 81 0 c137 1 193 42 217 162 14 68 -1 128 -38 157 -23 19 -40 21
-142 21 l-117 0 -52 -277z m258 207 c29 -15 36 -73 15 -126 -23 -62 -61 -84
-142 -84 -73 0 -70 -8 -46 127 l16 93 69 0 c38 0 78 -5 88 -10z"/>
<path d="M14705 2038 c-4 -15 -115 -535 -115 -543 0 -3 15 -5 34 -5 l33 0 43
215 c24 118 46 215 49 215 3 0 42 -96 87 -213 l81 -212 35 -3 35 -3 33 153
c18 84 45 209 59 278 l27 125 -29 3 c-16 2 -31 1 -34 -2 -3 -2 -24 -97 -48
-211 -23 -113 -45 -208 -47 -211 -3 -2 -26 55 -53 128 -26 73 -61 170 -77 216
l-30 82 -39 0 c-23 0 -41 -5 -44 -12z"/>
<path d="M4600 756 c-154 -206 -280 -379 -280 -385 0 -6 12 -18 26 -27 22 -15
27 -15 38 -3 8 8 136 180 286 383 l272 370 -22 18 c-12 10 -26 18 -31 18 -5 0
-135 -168 -289 -374z"/>
<path d="M5141 755 c-154 -206 -281 -379 -281 -384 0 -5 12 -16 26 -26 25 -16
27 -16 44 1 9 11 138 183 285 383 l268 364 -23 19 c-12 10 -26 18 -30 18 -4 0
-134 -169 -289 -375z"/>
<path d="M8177 1078 c-10 -5 -48 -13 -85 -16 -58 -6 -67 -10 -67 -27 0 -14 8
-21 25 -23 14 -2 28 -7 32 -10 9 -9 -107 -519 -122 -537 -6 -7 -25 -17 -41
-20 -16 -4 -29 -13 -29 -21 0 -11 22 -14 115 -14 96 0 115 3 115 15 0 9 -9 15
-24 15 -34 0 -37 10 -25 73 11 54 47 106 66 94 4 -3 23 -34 42 -69 38 -71 37
-98 -4 -98 -16 0 -25 -6 -25 -15 0 -12 18 -15 105 -15 86 0 105 3 105 15 0 8
-9 19 -19 25 -18 9 -131 201 -131 221 0 17 165 119 192 119 21 0 28 5 28 20 0
19 -7 20 -110 20 -102 0 -110 -1 -110 -19 0 -14 8 -21 28 -23 26 -3 23 -6 -48
-65 -41 -34 -76 -59 -78 -54 -2 5 18 100 43 211 25 111 45 204 43 205 -2 2
-11 -1 -21 -7z"/>
<path d="M2555 1070 c-11 -5 -36 -9 -55 -9 -55 -2 -80 -12 -80 -32 0 -13 7
-19 24 -19 14 0 27 -4 31 -9 9 -15 -85 -483 -104 -516 -12 -20 -29 -33 -54
-39 -20 -5 -37 -16 -37 -23 0 -19 241 -14 248 5 2 8 -7 12 -26 12 -16 0 -32 6
-35 14 -3 7 6 62 20 122 28 119 44 146 120 191 49 28 78 21 89 -24 7 -27 -41
-259 -58 -280 -5 -6 -23 -15 -39 -18 -16 -4 -29 -13 -29 -21 0 -11 23 -14 120
-14 100 0 120 3 120 15 0 9 -9 15 -24 15 -44 0 -46 17 -14 162 32 148 32 175
-7 214 -33 33 -101 33 -172 -1 -38 -17 -53 -20 -53 -11 0 7 11 68 25 136 32
157 33 148 -10 130z"/>
<path d="M12130 1063 c-26 -9 -60 -46 -60 -64 0 -59 121 -53 136 7 11 43 -30
74 -76 57z"/>
<path d="M4235 945 c-30 -29 -31 -46 -7 -68 40 -37 122 -8 122 42 0 36 -17 51
-57 51 -23 0 -42 -8 -58 -25z"/>
<path d="M3076 927 c-15 -38 -57 -74 -95 -84 -25 -6 -41 -20 -41 -35 0 -5 15
-8 33 -8 19 0 36 -2 39 -5 3 -3 -10 -70 -28 -148 -18 -78 -33 -156 -34 -174
-1 -85 115 -96 190 -18 28 29 31 37 20 50 -11 13 -16 11 -47 -15 -36 -32 -61
-38 -69 -17 -2 7 10 82 29 167 l33 155 62 3 c46 2 62 7 62 17 0 11 -14 15 -56
15 l-56 0 6 33 c21 95 21 97 -8 97 -20 0 -29 -8 -40 -33z"/>
<path d="M3421 921 c-20 -39 -74 -81 -104 -81 -12 0 -27 -19 -27 -36 0 -2 18
-4 40 -4 22 0 40 -2 40 -4 0 -2 -16 -70 -35 -152 -40 -170 -42 -195 -17 -217
46 -42 116 -29 176 32 32 33 35 39 22 50 -13 11 -22 8 -53 -18 -39 -32 -58
-38 -68 -22 -4 8 44 259 61 314 4 14 17 17 65 17 46 0 59 3 59 15 0 12 -13 15
-56 15 l-56 0 6 48 c4 26 9 55 12 65 4 13 -1 17 -20 17 -20 0 -30 -9 -45 -39z"/>
<path d="M3811 886 c-14 -17 -94 -46 -127 -46 -12 0 -30 -8 -40 -17 -17 -17
-16 -18 17 -23 25 -4 35 -11 37 -26 2 -11 -18 -112 -42 -225 -47 -211 -60
-239 -106 -239 -15 0 -30 -18 -30 -36 0 -2 52 -4 115 -4 63 0 115 4 115 9 0 5
3 16 6 25 5 13 -1 16 -25 16 -35 0 -38 10 -21 71 l10 37 48 -14 c153 -47 294
83 296 273 1 69 -1 74 -31 105 -27 27 -41 32 -91 36 -42 3 -68 -1 -91 -13 -18
-9 -34 -15 -36 -13 -2 2 0 23 5 48 9 51 8 57 -9 36z m150 -154 c15 -38 4 -124
-21 -177 -40 -82 -123 -117 -174 -74 l-27 24 21 100 c24 116 37 140 93 165 37
17 44 17 69 4 16 -8 34 -27 39 -42z"/>
<path d="M11750 853 c-25 -8 -56 -18 -69 -22 -36 -9 -36 -27 -1 -34 37 -8 37
-9 5 -144 -17 -71 -33 -116 -48 -132 -30 -33 -103 -64 -133 -57 -44 11 -44 53
-2 229 21 88 36 162 34 165 -3 2 -19 -1 -37 -7 -18 -6 -46 -11 -63 -11 -51 0
-76 -11 -76 -31 0 -14 7 -19 25 -19 14 0 28 -7 32 -16 3 -8 -7 -74 -22 -145
-31 -145 -29 -168 18 -203 38 -28 115 -27 180 2 l47 21 -6 -26 c-6 -21 -4 -24
12 -20 11 3 49 9 87 13 55 5 67 10 67 24 0 11 -10 20 -29 23 -17 4 -31 14 -33
24 -2 10 13 95 34 188 21 94 38 176 38 183 0 14 -1 14 -60 -5z"/>
<path d="M12120 855 c-19 -8 -56 -17 -82 -20 -55 -7 -65 -29 -18 -38 21 -5 30
-12 30 -25 0 -16 -84 -386 -95 -419 -3 -9 -12 -8 -34 5 -28 15 -33 16 -58 2
-32 -18 -41 -51 -19 -69 8 -7 30 -15 49 -18 44 -7 113 25 142 64 13 18 36 110
71 280 28 139 51 253 50 252 0 -1 -17 -7 -36 -14z"/>
<path d="M13615 855 c-22 -8 -61 -14 -87 -14 -56 -1 -66 -23 -18 -40 38 -13
38 -20 1 -197 -32 -147 -41 -164 -93 -164 -21 0 -28 -5 -28 -20 0 -20 5 -21
117 -18 82 2 118 7 121 16 2 7 -5 12 -16 12 -45 0 -47 23 -17 156 26 114 31
127 63 155 40 36 76 51 98 42 31 -12 33 -47 9 -174 -22 -111 -28 -127 -55
-151 -17 -16 -37 -28 -45 -28 -8 0 -15 -7 -15 -15 0 -12 19 -15 108 -15 71 0
112 4 120 12 19 19 14 28 -17 28 -17 0 -33 4 -36 10 -3 5 6 67 21 136 22 102
33 131 53 151 39 37 87 56 111 43 37 -20 38 -40 9 -175 -30 -134 -46 -165 -90
-165 -12 0 -19 -7 -19 -20 0 -19 7 -20 115 -20 108 0 115 1 115 20 0 13 -7 20
-19 20 -42 0 -44 23 -17 138 40 165 35 217 -24 247 -43 22 -100 19 -154 -10
l-48 -25 -30 25 c-39 33 -117 35 -167 4 l-33 -20 6 35 c4 20 6 36 4 35 -2 -1
-21 -7 -43 -14z"/>
<path d="M12615 822 c-122 -57 -201 -255 -140 -349 61 -92 219 -92 322 1 47
43 47 45 28 60 -18 13 -23 12 -50 -10 -38 -31 -104 -64 -130 -64 -38 0 -83 37
-90 73 -13 65 37 186 91 222 38 25 76 34 102 24 17 -6 22 -16 22 -43 0 -19 7
-42 16 -50 19 -19 17 -19 49 -4 51 23 42 87 -18 132 -40 29 -147 34 -202 8z"/>
<path d="M5490 815 c0 -8 6 -15 14 -15 28 0 39 -33 70 -212 l32 -183 30 -3
c28 -3 32 3 98 123 38 68 71 124 72 122 2 -1 12 -45 24 -97 11 -52 22 -105 25
-117 4 -16 13 -23 28 -23 19 0 37 27 111 163 99 182 108 194 154 214 17 7 32
20 32 28 0 12 -18 15 -100 15 -80 0 -100 -3 -100 -14 0 -9 12 -16 27 -18 17
-2 29 -10 31 -21 3 -16 -107 -226 -119 -227 -6 0 -39 182 -39 213 0 12 12 23
30 30 17 6 30 17 30 25 0 18 -201 13 -208 -5 -2 -8 5 -13 16 -13 11 0 25 -7
32 -15 16 -19 -1 -66 -62 -175 l-42 -75 -17 120 c-17 125 -14 145 22 145 11 0
19 7 19 15 0 12 -18 15 -105 15 -87 0 -105 -3 -105 -15z"/>
<path d="M6237 823 c-12 -11 -8 -23 8 -23 28 0 44 -45 69 -195 38 -221 33
-205 67 -205 27 0 33 8 93 128 54 107 65 123 70 102 11 -48 46 -210 46 -215 0
-3 13 -5 29 -5 28 0 35 9 112 152 97 180 120 214 153 222 14 3 30 15 36 26 10
19 7 20 -94 20 -83 0 -105 -3 -110 -15 -4 -11 2 -15 25 -15 16 0 32 -6 35 -14
3 -8 -21 -65 -55 -128 -35 -66 -62 -106 -65 -98 -7 22 -36 184 -36 204 0 10
12 22 30 29 16 6 32 17 34 24 4 10 -18 13 -98 13 -79 0 -105 -3 -109 -14 -4
-9 4 -16 24 -20 22 -4 29 -11 29 -28 0 -27 -102 -230 -111 -220 -3 4 -14 55
-24 114 -19 114 -15 138 25 138 10 0 20 7 24 15 5 13 -10 15 -98 15 -56 0
-106 -3 -109 -7z"/>
<path d="M6977 816 c-4 -9 3 -16 18 -20 13 -3 26 -14 29 -24 6 -18 66 -350 66
-365 0 -5 14 -7 32 -5 29 3 37 12 95 118 34 63 67 116 72 118 4 1 19 -49 31
-113 22 -113 23 -116 48 -113 21 3 39 27 111 159 97 177 101 183 153 215 21
14 38 29 38 34 0 6 -43 10 -105 10 -87 0 -105 -3 -105 -15 0 -8 9 -15 19 -15
28 0 51 -10 51 -23 0 -13 -121 -229 -126 -224 -2 2 -13 50 -25 106 -22 111
-20 124 28 142 50 19 21 29 -82 29 -84 0 -105 -3 -105 -14 0 -8 10 -16 23 -18
39 -5 33 -48 -24 -158 -28 -56 -53 -99 -55 -97 -4 4 -34 201 -34 226 0 12 11
23 30 30 59 20 33 31 -74 31 -80 0 -105 -3 -109 -14z"/>
<path d="M8510 816 c0 -8 9 -18 21 -21 29 -9 44 -50 83 -214 l34 -144 -46 -49
c-31 -33 -49 -45 -56 -38 -14 14 -69 13 -84 -2 -21 -21 -14 -57 13 -70 36 -16
98 5 147 50 21 20 105 134 187 252 124 181 151 215 174 218 15 2 27 10 27 18
0 11 -20 14 -105 14 -82 0 -105 -3 -105 -14 0 -7 14 -16 30 -19 17 -4 30 -12
30 -19 0 -14 -132 -237 -141 -238 -3 0 -17 50 -32 112 -28 118 -25 148 13 148
11 0 20 7 20 15 0 12 -18 15 -105 15 -84 0 -105 -3 -105 -14z"/>
<path d="M9217 816 c-93 -34 -157 -106 -178 -201 -16 -73 -5 -122 36 -161 83
-78 245 -62 337 33 90 93 100 228 23 303 -33 32 -41 35 -108 37 -44 2 -87 -2
-110 -11z m138 -47 c17 -16 20 -32 19 -93 -1 -123 -61 -219 -148 -233 -28 -4
-39 -1 -62 22 -25 25 -26 31 -22 93 8 108 57 199 123 228 35 15 62 10 90 -17z"/>
<path d="M9597 816 c-4 -9 3 -16 18 -20 18 -5 26 -17 34 -53 12 -49 61 -321
61 -336 0 -5 14 -7 31 -5 29 3 37 13 95 118 35 63 67 116 72 118 4 1 19 -50
32 -113 22 -112 24 -116 48 -113 19 2 35 23 79 103 126 231 132 240 179 268
24 14 44 31 44 37 0 6 -40 10 -105 10 -87 0 -105 -3 -105 -15 0 -9 9 -15 24
-15 13 0 29 -7 36 -15 10 -12 1 -35 -50 -125 -34 -61 -65 -109 -67 -106 -3 2
-14 50 -24 106 -22 110 -19 123 28 141 50 19 21 29 -82 29 -84 0 -105 -3 -105
-14 0 -8 10 -16 23 -18 40 -6 33 -48 -24 -158 -29 -55 -54 -98 -57 -96 -5 5
-32 191 -32 223 0 15 9 24 30 32 59 20 33 31 -74 31 -80 0 -105 -3 -109 -14z"/>
<path d="M10445 811 c-37 -16 -95 -72 -95 -89 1 -26 47 -48 79 -37 11 3 25 21
31 40 13 39 24 50 62 59 38 9 61 -17 52 -58 -8 -42 -10 -43 -93 -66 -149 -42
-222 -121 -187 -203 24 -58 117 -73 197 -32 26 14 30 14 49 -5 24 -24 49 -25
93 -6 56 25 61 31 47 56 -11 20 -13 21 -30 5 -11 -10 -20 -12 -24 -7 -3 6 7
67 24 137 37 155 37 169 4 200 -23 22 -36 25 -98 25 -47 0 -85 -7 -111 -19z
m100 -233 c-10 -70 -20 -87 -62 -105 -112 -46 -121 63 -10 127 74 43 80 41 72
-22z"/>
<path d="M13104 814 c-116 -41 -203 -187 -175 -292 14 -49 65 -97 122 -112 55
-15 146 1 206 36 141 82 165 317 37 370 -42 18 -137 17 -190 -2z m120 -25 c36
-17 50 -59 43 -132 -10 -107 -57 -185 -123 -207 -52 -17 -83 -6 -101 38 -38
92 35 276 120 301 18 5 33 10 34 10 1 1 13 -4 27 -10z"/>
<path d="M10820 735 l0 -25 223 2 c222 3 222 3 225 26 l3 22 -225 0 -226 0 0
-25z"/>
<path d="M4152 580 c-26 -25 -27 -38 -6 -68 20 -29 55 -28 93 4 51 42 36 84
-29 84 -23 0 -44 -8 -58 -20z"/>
<path d="M7700 481 c-32 -32 -31 -64 2 -82 41 -22 108 19 108 66 0 50 -67 60
-110 16z"/>
<path d="M12205 485 c-30 -29 -32 -56 -7 -78 24 -22 50 -21 89 2 43 27 52 59
23 83 -32 26 -76 23 -105 -7z"/>
</g>
</svg>
