<?xml version="1.0" standalone="no"?>
<!DOCTYPE svg PUBLIC "-//W3C//DTD SVG 20010904//EN"
 "http://www.w3.org/TR/2001/REC-SVG-20010904/DTD/svg10.dtd">
<svg version="1.0" xmlns="http://www.w3.org/2000/svg"
 width="997.000000pt" height="212.000000pt" viewBox="0 0 997.000000 212.000000"
 preserveAspectRatio="xMidYMid meet">

<g transform="translate(0.000000,212.000000) scale(0.100000,-0.100000)"
fill="#347FFF" stroke="none">
<path d="M1234 1887 c-21 -18 -58 -45 -81 -61 -23 -15 -41 -33 -40 -39 1 -6
-7 -11 -18 -12 -11 0 -19 -6 -17 -13 1 -8 -2 -11 -8 -7 -5 3 -10 1 -10 -6 0
-7 -3 -10 -6 -6 -8 7 -114 -72 -114 -85 0 -5 -4 -6 -10 -3 -5 3 -10 3 -10 -2
0 -4 -14 -16 -31 -25 -35 -21 -33 -26 24 -65 23 -16 43 -35 45 -42 1 -7 -2
-10 -6 -7 -5 3 -18 -4 -28 -15 -11 -12 -45 -39 -76 -61 -32 -23 -55 -45 -51
-51 3 -6 1 -7 -5 -3 -6 3 -17 0 -24 -8 -13 -13 -55 -6 -68 13 -3 4 -19 17 -36
29 l-32 22 -45 -40 c-25 -22 -48 -40 -51 -40 -13 0 -65 -43 -61 -50 2 -4 -2
-7 -9 -7 -21 0 -166 -114 -159 -126 3 -6 1 -7 -6 -3 -15 10 -43 -13 -34 -27 4
-6 0 -8 -10 -4 -8 3 -20 0 -26 -7 -9 -10 0 -21 36 -47 27 -19 49 -40 51 -47 1
-8 -2 -11 -7 -8 -5 3 -20 -7 -34 -23 -14 -17 -27 -28 -29 -25 -3 2 -11 -3 -19
-13 -12 -15 -12 -16 4 -10 10 4 16 3 12 -2 -6 -11 183 -156 205 -156 8 -1 14
-6 12 -13 -1 -7 6 -16 15 -19 10 -4 25 -16 34 -27 14 -17 19 -18 32 -8 11 9
17 10 22 2 4 -6 3 -10 -2 -9 -23 4 -23 -3 1 -22 14 -11 30 -17 36 -14 6 4 9 1
8 -5 -2 -7 4 -17 13 -23 13 -8 27 -3 67 26 50 37 67 44 74 29 9 -21 77 -62 94
-56 13 4 15 3 6 -3 -15 -12 43 -57 60 -47 7 4 8 3 4 -4 -4 -6 2 -17 14 -24 19
-12 29 -41 12 -35 -4 1 -25 -13 -47 -31 l-40 -33 40 -34 c22 -19 46 -32 53
-30 7 3 11 1 8 -4 -3 -4 16 -23 42 -42 26 -18 53 -39 60 -46 8 -7 18 -10 24
-7 6 4 8 2 5 -3 -4 -6 0 -16 8 -23 8 -7 15 -9 15 -4 0 5 7 1 15 -10 8 -10 19
-15 26 -10 7 4 10 3 6 -3 -6 -10 92 -93 109 -93 3 0 28 16 55 36 27 20 52 34
56 32 27 -12 83 -51 83 -57 0 -11 33 -10 47 1 7 6 10 15 6 21 -3 5 -1 7 4 4 9
-5 223 146 243 172 3 3 16 12 30 19 14 7 43 29 65 48 l40 34 -30 25 c-16 13
-36 22 -42 20 -7 -2 -12 1 -10 8 1 7 -3 11 -10 10 -19 -4 -4 24 23 42 21 13
23 19 14 38 -10 20 -10 21 4 4 14 -18 18 -16 89 37 40 31 78 56 83 56 5 0 27
-16 49 -35 22 -19 47 -35 56 -35 17 0 42 23 34 32 -3 2 1 5 8 5 8 0 58 33 112
74 53 41 107 81 119 89 58 40 136 104 136 112 0 5 -4 7 -9 4 -5 -3 -12 1 -15
10 -3 8 -10 12 -16 9 -5 -3 -10 1 -10 9 0 9 -5 16 -11 16 -5 0 -7 -4 -4 -10 4
-6 -1 -7 -11 -3 -12 4 -14 8 -6 11 10 3 10 7 1 18 -7 8 -10 16 -8 18 2 2 25
19 51 39 39 29 45 37 33 47 -8 6 -20 8 -26 4 -7 -4 -9 -3 -5 4 3 6 -3 16 -15
22 -12 7 -35 24 -51 38 -16 14 -55 44 -87 66 -32 23 -89 65 -126 94 -38 29
-75 50 -82 47 -8 -2 -11 0 -8 5 9 15 -13 12 -40 -6 -14 -9 -22 -21 -18 -27 3
-6 1 -7 -5 -3 -6 4 -20 1 -31 -6 -27 -17 -56 0 -213 128 -25 19 -23 26 17 53
19 13 32 27 29 32 -3 5 2 6 10 3 11 -4 16 0 16 11 0 11 -5 15 -16 11 -8 -3
-12 -2 -9 4 3 5 -5 14 -17 21 -13 7 -24 10 -25 8 -1 -2 -5 0 -10 5 -5 5 -2 6
6 1 31 -18 0 13 -41 41 -24 16 -54 39 -68 52 -14 12 -28 22 -32 22 -3 0 -13 6
-20 13 -14 13 -145 110 -165 121 -17 9 -75 -22 -67 -36 4 -6 3 -8 -4 -4 -6 3
-17 -1 -26 -9 -14 -14 -18 -14 -43 0 -15 8 -42 26 -59 40 l-31 25 -39 -33z
m557 -350 c-6 -8 -7 -18 -3 -22 4 -5 1 -5 -6 -1 -10 6 -10 11 -1 22 6 8 14 14
16 14 3 0 0 -6 -6 -13z m-391 -338 c0 -6 7 -8 16 -5 8 3 12 2 9 -4 -3 -5 16
-24 42 -42 109 -75 132 -94 133 -105 0 -7 -4 -12 -8 -10 -5 1 -24 -11 -43 -26
-19 -16 -64 -50 -100 -77 l-66 -49 -87 64 c-60 44 -93 62 -111 61 -13 -2 -22
1 -19 6 3 5 13 7 22 3 13 -5 12 -2 -2 14 -18 20 -18 21 5 41 13 11 39 29 57
41 17 11 29 26 26 31 -4 6 -3 9 2 5 5 -3 30 10 54 29 46 34 70 42 70 23z m20
-349 c8 -5 11 -10 5 -10 -5 0 -17 5 -25 10 -8 5 -10 10 -5 10 6 0 17 -5 25
-10z m465 -208 c-3 -3 -11 0 -18 7 -9 10 -8 11 6 5 10 -3 15 -9 12 -12z"/>
<path d="M3834 1655 l-68 -62 63 -36 c34 -21 67 -34 73 -31 6 4 9 3 6 -2 -3
-5 12 -20 33 -34 21 -13 39 -28 39 -32 0 -4 -110 -8 -244 -8 l-244 0 1 -97 2
-98 220 -2 220 -2 3 -105 3 -106 -209 0 -209 0 -2 -100 -2 -100 210 0 211 0 0
-115 0 -115 -230 0 -231 0 3 -98 3 -97 560 0 560 0 3 75 c2 65 0 79 -18 98
-20 21 -27 22 -220 22 l-200 0 0 115 0 115 180 0 180 0 0 78 c0 123 2 122
-194 122 -89 0 -165 2 -167 4 -2 2 -2 50 1 107 l5 102 198 -2 197 -2 0 84 c0
119 7 115 -220 117 -101 0 -186 3 -188 5 -3 3 0 11 6 18 7 8 9 17 5 21 -4 4
-1 4 8 1 9 -3 25 5 39 20 13 14 19 25 12 25 -6 0 -17 6 -24 13 -12 11 -147
104 -177 122 -10 6 -12 4 -7 -6 4 -8 -1 -3 -11 9 -11 13 -31 25 -45 25 -14 1
-24 5 -22 8 2 4 -7 7 -20 7 -14 0 -49 -24 -92 -63z"/>
<path d="M5299 1705 c-1 -3 -2 -8 -3 -12 -1 -5 -6 -45 -10 -90 l-8 -83 -274 0
-274 0 0 -105 0 -105 250 0 250 0 -6 -27 c-4 -15 -7 -33 -7 -40 0 -7 -3 -13
-7 -13 -4 0 -13 -19 -20 -42 -7 -24 -23 -65 -37 -92 -13 -26 -22 -55 -19 -63
3 -8 2 -11 -4 -8 -12 7 -29 -26 -22 -44 2 -8 0 -11 -5 -8 -5 3 -18 -8 -28 -26
-57 -98 -183 -240 -274 -309 -31 -24 -57 -46 -59 -50 -2 -5 -9 -8 -17 -8 -7 0
-18 -7 -25 -15 -11 -13 0 -27 65 -90 l77 -75 46 32 c81 55 161 123 158 133 -2
6 5 12 15 12 11 1 31 -15 50 -38 17 -21 34 -37 38 -34 4 2 8 -2 8 -9 0 -16 40
-69 65 -84 32 -21 215 49 373 143 l93 56 51 -31 c28 -17 55 -29 61 -25 6 4 9
1 8 -7 -2 -7 4 -13 12 -13 8 0 17 -3 20 -7 14 -18 308 -136 315 -126 9 14 95
188 95 193 0 3 -4 4 -9 1 -5 -4 -11 -1 -13 5 -2 7 -18 12 -35 13 -17 0 -29 4
-27 7 6 10 -45 21 -58 13 -6 -4 -8 -3 -5 2 3 6 -15 16 -41 24 -26 7 -54 17
-62 21 -8 4 -46 21 -84 39 l-69 30 29 33 c16 17 35 35 42 40 6 4 12 14 12 22
0 7 5 15 11 17 22 7 100 155 118 223 16 59 13 89 -9 113 -20 22 -25 22 -306
22 -267 0 -285 1 -281 18 3 9 8 29 11 45 l6 27 370 0 370 0 0 85 c0 132 23
124 -364 124 l-321 1 0 76 c0 104 -12 114 -141 114 -52 0 -95 -2 -95 -5z m465
-707 c-10 -12 -29 -34 -41 -48 -13 -13 -23 -28 -23 -32 0 -4 -13 -14 -30 -23
-30 -16 -54 -21 -32 -6 10 6 6 16 -18 41 -17 18 -40 46 -51 61 l-20 29 117 0
117 0 -19 -22z m-393 -108 c20 -29 39 -48 47 -45 7 3 10 0 7 -5 -4 -6 12 -27
34 -48 l41 -38 -63 -36 c-90 -53 -330 -144 -348 -132 -5 3 17 35 47 72 31 37
65 77 75 89 26 32 95 142 97 156 1 6 23 35 28 37 0 0 16 -23 35 -50z m-148
-65 c-3 -9 -8 -14 -10 -11 -3 3 -2 9 2 15 9 16 15 13 8 -4z m-269 -121 c3 -8
2 -12 -4 -9 -6 3 -10 10 -10 16 0 14 7 11 14 -7z"/>
<path d="M8490 1635 l0 -74 -29 2 c-16 1 -29 7 -28 12 1 6 -5 10 -13 10 -8 0
-21 6 -29 13 -7 7 -20 11 -28 8 -7 -3 -16 1 -20 10 -3 8 -12 13 -19 10 -7 -3
-16 -1 -19 4 -4 6 -23 10 -44 10 -33 0 -45 -7 -91 -56 -29 -30 -49 -59 -44
-63 5 -5 56 -29 113 -54 98 -44 106 -46 128 -31 14 8 21 20 17 27 -4 7 -3 9 1
4 11 -9 75 52 75 71 0 12 3 12 15 2 19 -16 21 -118 3 -125 -7 -2 -26 -10 -43
-16 -16 -7 -36 -11 -42 -10 -7 1 -13 -3 -13 -10 0 -6 -6 -9 -13 -6 -19 7 -112
-13 -99 -22 5 -3 -24 -7 -65 -8 -42 -1 -80 -6 -85 -11 -10 -10 10 -92 22 -92
4 0 7 -6 7 -12 -1 -7 2 -29 7 -49 l8 -36 106 27 c59 15 127 35 152 44 63 22
70 21 70 -16 0 -56 7 -59 111 -56 l94 3 2 267 c3 317 11 298 -124 298 l-83 0
0 -75z m-122 -190 c-3 -3 -9 2 -12 12 -6 14 -5 15 5 6 7 -7 10 -15 7 -18z"/>
<path d="M9091 1663 l3 -48 -157 -3 -157 -3 0 -89 0 -90 155 0 155 0 0 -40 c0
-22 0 -43 0 -47 0 -5 -55 -10 -122 -13 l-123 -5 -3 -80 -3 -80 -39 3 -39 4 -3
-52 -3 -52 -321 2 c-251 0 -323 -2 -331 -12 -11 -13 -15 -141 -6 -165 4 -10
41 -13 137 -13 l131 0 -44 -26 c-43 -27 -195 -73 -239 -74 l-23 0 23 -39 c12
-22 26 -37 31 -34 5 3 7 -1 6 -8 -5 -21 44 -90 59 -84 8 3 24 5 37 5 13 0 30
7 38 15 8 8 17 11 20 8 7 -7 163 55 180 71 10 10 27 19 80 44 4 2 7 -31 5 -74
-2 -59 -6 -78 -18 -79 -8 -1 -67 -6 -130 -10 -142 -9 -202 -14 -207 -18 -1 -2
7 -14 19 -27 13 -13 23 -29 23 -35 1 -24 57 -115 71 -115 21 0 187 17 294 31
119 15 284 49 288 60 2 5 8 6 13 3 6 -3 23 0 40 6 29 12 29 13 29 95 l0 82
-47 -9 c-27 -4 -65 -11 -85 -14 -21 -4 -36 -9 -34 -13 2 -3 -7 -6 -20 -6 -24
0 -24 0 -24 118 0 64 1 120 3 124 3 11 82 3 86 -9 8 -23 64 -77 74 -71 5 3 7
1 4 -4 -8 -13 27 -46 37 -36 4 5 6 3 4 -4 -3 -13 56 -69 117 -111 22 -15 49
-35 60 -45 35 -33 169 -107 183 -102 7 3 10 1 7 -5 -3 -5 5 -14 17 -21 22 -12
22 -11 8 7 -10 14 -7 13 11 -4 38 -33 174 -76 199 -62 11 6 20 15 20 20 0 4
22 41 50 81 l50 73 -97 32 c-53 18 -101 30 -106 27 -6 -3 -7 -1 -3 5 3 6 -4
13 -16 17 -38 11 -87 35 -94 46 -8 14 21 34 69 49 23 7 35 15 31 22 -4 6 -3 8
3 5 16 -10 74 13 66 26 -4 6 0 8 9 4 9 -3 24 0 33 7 16 11 15 14 -9 30 -15 9
-32 14 -39 10 -8 -5 -9 -4 -2 4 6 6 44 12 85 14 l75 3 0 72 c0 79 -13 104 -57
108 -13 1 -159 3 -325 4 l-303 1 0 35 c0 21 5 35 13 35 6 0 146 0 310 0 l297
-1 0 79 c0 111 -1 112 -172 112 l-136 0 -4 29 c-2 16 -1 38 4 50 7 20 14 21
182 21 172 0 174 0 180 23 18 66 -2 144 -38 152 -12 3 -88 6 -171 7 l-150 3
-3 32 c-5 50 -32 63 -135 63 l-89 0 3 -47z m204 -788 c0 -4 -7 -9 -15 -10 -8
-2 -36 -12 -62 -25 l-47 -22 -35 28 c-19 15 -33 30 -31 33 5 9 190 5 190 -4z"/>
<path d="M6464 1691 c-2 -2 -4 -37 -4 -78 l0 -74 295 3 295 3 0 -25 0 -25
-345 3 -345 3 0 -191 0 -191 113 3 112 3 3 108 3 107 228 0 c125 0 230 -2 232
-4 2 -3 3 -25 1 -50 l-4 -46 -89 0 c-86 0 -94 3 -91 31 2 11 -108 20 -158 13
-27 -4 -50 -11 -52 -18 -2 -6 -2 -41 0 -78 l4 -68 509 0 510 0 -3 83 -3 82
-90 0 c-109 1 -126 -3 -123 -24 3 -14 -9 -16 -87 -16 l-90 0 -3 47 -3 47 225
3 226 3 0 -107 c0 -127 -7 -121 135 -116 l90 3 1 160 c1 87 -1 165 -3 172 -15
38 -52 42 -363 43 -167 0 -306 2 -308 4 -2 3 -1 13 2 23 5 17 22 18 296 15
l290 -3 0 55 c0 36 -6 61 -17 75 l-18 22 -683 2 c-376 1 -686 0 -688 -2z"/>
<path d="M3304 1675 c-3 -8 -2 -19 2 -26 4 -8 3 -9 -4 -5 -14 8 -46 -50 -36
-66 4 -6 3 -8 -3 -5 -12 8 -46 -61 -37 -75 4 -6 3 -8 -3 -5 -5 3 -20 -13 -33
-36 -13 -23 -47 -79 -77 -125 -29 -45 -53 -85 -53 -88 0 -2 -24 -34 -54 -70
-45 -54 -53 -70 -46 -88 5 -11 21 -67 36 -123 16 -59 33 -103 39 -103 17 0 38
27 30 39 -3 6 0 9 7 6 7 -3 26 13 42 35 16 22 31 38 33 36 2 -2 5 -131 6 -287
l2 -284 108 -3 107 -3 0 457 0 456 40 75 c22 41 37 79 34 86 -4 7 -4 9 1 5 11
-10 45 67 45 102 0 36 -22 54 -103 85 -79 29 -76 29 -83 10z m26 -5 c0 -5 -5
-10 -11 -10 -5 0 -7 5 -4 10 3 6 8 10 11 10 2 0 4 -4 4 -10z"/>
<path d="M6440 830 l0 -230 297 -2 298 -3 -2 -49 c-1 -29 5 -64 14 -83 29 -63
32 -63 448 -63 207 0 374 3 372 8 -3 4 7 8 21 9 52 3 102 101 102 200 0 29 -3
52 -7 51 -16 -3 -114 15 -118 22 -2 4 -5 81 -5 171 -1 134 -5 167 -17 182 -15
16 -62 17 -710 17 l-693 0 0 -230z m593 88 c3 -10 0 -21 -7 -24 -6 -2 -90 -3
-185 -2 -171 3 -174 3 -177 25 -4 22 -3 23 149 25 192 4 214 1 220 -24z m610
3 c3 -11 2 -22 -1 -25 -3 -3 -86 -6 -184 -6 l-178 0 0 25 0 25 179 0 c168 0
179 -1 184 -19z m-774 -151 c160 0 167 -1 167 -20 0 -19 -7 -20 -188 -20
l-188 0 4 23 c3 12 5 24 5 26 1 2 8 0 17 -3 9 -3 91 -6 183 -6z m777 -20 c0
-19 -7 -20 -183 -20 -176 0 -183 1 -183 20 0 19 7 20 183 20 176 0 183 -1 183
-20z m123 -167 c-8 -10 -18 -21 -24 -25 -16 -12 -424 -9 -446 2 -10 6 -19 17
-19 25 0 13 37 15 251 15 238 0 251 -1 238 -17z"/>
</g>
</svg>
