<?xml version="1.0" encoding="utf-8"?>
<!-- Generator: Adobe Illustrator 23.1.0, SVG Export Plug-In . SVG Version: 6.00 Build 0)  -->
<svg version="1.1" id="_x31_" xmlns="http://www.w3.org/2000/svg" xmlns:xlink="http://www.w3.org/1999/xlink" x="0px" y="0px"
	 viewBox="0 50 841.9 595.3" style="enable-background:new 0 0 841.9 595.3;" xml:space="preserve">
<style type="text/css">
	.st0{fill:#D3011D;}
</style>
<polygon class="st0" points="589.9,152.9 615,152.9 615,228.7 681.3,228.7 716.6,153.2 798.9,153.2 746.4,266.8 798.7,380.2 
	715.8,380.2 681.5,304.9 615,304.9 615,380.2 539.3,380.2 539.3,178 513.6,178 513.6,254.4 362.7,254.4 362.7,178 72.7,178 
	72.7,203.4 173.4,203.4 173.4,355.2 198.8,355.2 198.8,203.4 336.9,203.4 336.9,355.4 362.9,355.4 362.9,279.7 513.6,279.7 
	513.6,379.9 489.2,379.9 489.2,305 387.7,305 387.7,380.2 312.1,380.2 312.1,229.2 223.5,229.2 223.5,380.4 148,380.4 148,229.3 
	47.4,229.3 47.4,153 387.6,153 387.7,228.9 489.2,228.9 489.2,152.8 564.4,152.8 564.4,355 589.9,355 589.9,279.4 697,279.4 
	731.9,355.3 759.4,355.3 719.2,266.7 760.7,177.9 732.8,177.9 697.1,254 589.9,254 "/>
<g>
	<path class="st0" d="M46.4,395.3h35.9v8.9H69v41.2h-9.3v-41.2H46.4L46.4,395.3L46.4,395.3z"/>
	<path class="st0" d="M105.2,407.3c2,0,3.9,0.4,5.5,1.2c1.7,0.8,3,2,4.1,3.6c0.9,1.4,1.5,2.8,1.7,4.3c0.2,1.5,0.3,3.8,0.3,7.2v21.7
		H108v-22.5c0-2-0.3-3.6-0.9-4.8c-0.8-1.7-2.3-2.6-4.5-2.6c-2.3,0-4,0.9-5.2,2.6c-1.2,1.7-1.8,4.1-1.8,7.3v20h-8.6v-49.9h8.6v17.7
		c1.2-2.2,2.7-3.6,4.3-4.5C101.6,407.8,103.3,407.3,105.2,407.3z"/>
	<path class="st0" d="M142.3,417.3c1.2,1.3,1.9,3.3,2.1,5.8H131c0.3-2.4,1-4.3,2.1-5.7c1.1-1.4,2.6-2.1,4.6-2.1
		C139.5,415.3,141,416,142.3,417.3z M126.4,412.4c-2.9,3.4-4.3,8.3-4.3,14.7c0,6.8,1.6,11.8,4.8,14.8c3.2,3,6.9,4.5,11,4.5
		c5.1,0,9-1.8,11.8-5.4c1.8-2.3,2.8-4.5,3-6.7H144c-0.5,1.1-1,1.9-1.6,2.5c-1.1,1.1-2.5,1.7-4.3,1.7c-1.7,0-3.1-0.5-4.3-1.4
		c-2-1.5-3-4.1-3.1-7.8h22.5c0-3.2,0-5.6-0.3-7.3c-0.4-2.9-1.2-5.4-2.5-7.7c-1.4-2.5-3.2-4.3-5.4-5.5c-2.2-1.1-4.6-1.7-7.4-1.7
		C133.1,407.3,129.3,409,126.4,412.4z"/>
	<path class="st0" d="M198.2,434.6l8-39.4h13.3v50.1h-8.6v-33.9c0-1,0-2.3,0-4.1c0-1.8,0-3.1,0-4l-8.4,42h-9l-8.3-42
		c0,0.9,0,2.3,0,4c0,1.8,0,3.1,0,4.1v33.9h-8.6v-50.1h13.5L198.2,434.6z"/>
	<path class="st0" d="M243.1,437.6c-1.6,1.2-3.3,1.8-5.1,1.8c-1.2,0-2.2-0.4-3-1.1c-0.8-0.7-1.2-1.9-1.2-3.6c0-1.9,0.7-3.2,2-4.1
		c0.8-0.5,2.1-1,3.9-1.3l1.9-0.4c1-0.2,1.7-0.4,2.3-0.7c0.6-0.2,1.1-0.5,1.6-0.9v3.6C245.5,434.2,244.7,436.4,243.1,437.6z
		 M229.9,425.6c-3.1,2-4.7,5.3-4.7,9.9c0,3.5,1,6.2,2.9,8.1s4.4,2.9,7.4,2.9c2.3,0,4.4-0.6,6.3-1.8c1.6-1,2.9-2.3,4.1-3.7
		c0.1,0.8,0.1,1.6,0.2,2.3c0.1,0.7,0.3,1.3,0.5,2.1h9.3v-1.4c-0.6-0.3-1-0.7-1.3-1.1c-0.3-0.5-0.4-1.3-0.5-2.6
		c0-1.7-0.1-3.1-0.1-4.3v-17c0-4.5-1.4-7.5-4.2-9.1c-2.8-1.6-6-2.4-9.6-2.4c-5.5,0-9.4,1.6-11.7,4.9c-1.4,2.1-2.2,4.7-2.4,8h8.3
		c0.2-1.4,0.6-2.6,1.2-3.4c0.8-1.1,2.3-1.7,4.3-1.7c1.8,0,3.2,0.3,4.1,0.9c0.9,0.6,1.4,1.6,1.4,3.2c0,1.2-0.6,2.2-1.8,2.7
		c-0.7,0.3-1.8,0.6-3.4,0.9l-2.9,0.4C234.1,423.7,231.6,424.5,229.9,425.6z"/>
	<path class="st0" d="M279.6,407.4c0.2,0,0.3,0,0.4,0c0.1,0,0.4,0,0.7,0v9.9c-0.5-0.1-1-0.1-1.4-0.1c-0.4,0-0.8,0-1,0
		c-3.4,0-5.8,1.3-7,3.8c-0.7,1.4-1,3.6-1,6.6v17.7h-8.6v-37h8.2v6.5c1.3-2.5,2.5-4.2,3.5-5.1C274.9,408.2,277,407.4,279.6,407.4z"/>
	<path class="st0" d="M285.6,445.3v-49.9h8.4v27l10.7-13.9h10.6l-11.5,14.2l11.9,22.7h-10.4l-7.9-15.8l-3.6,4.2v11.7L285.6,445.3
		L285.6,445.3z"/>
	<path class="st0" d="M346,435.5c-1.4-2-2-4.9-2-8.6s0.7-6.6,2-8.6c1.4-2,3.3-3,5.8-3c2.5,0,4.4,1,5.8,3s2,4.9,2,8.6s-0.7,6.6-2,8.6
		c-1.4,2-3.3,3-5.8,3C349.3,438.5,347.4,437.5,346,435.5z M364.5,413c-2.8-3.9-7-5.9-12.6-5.9s-9.8,2-12.6,5.9
		c-2.8,3.9-4.2,8.5-4.2,13.9c0,5.4,1.4,10.1,4.2,14c2.8,3.9,7,5.8,12.6,5.8s9.9-1.9,12.6-5.8c2.8-3.9,4.2-8.5,4.2-14
		C368.6,421.5,367.2,416.9,364.5,413z"/>
	<path class="st0" d="M386.9,394.7c0.5,0,1,0,1.5,0c0.5,0,1,0.1,1.8,0.2v7.9c-0.5-0.1-1.3-0.1-2.4-0.2c-1.1,0-1.9,0.2-2.3,0.9
		c-0.4,0.6-0.7,1.3-0.7,2c0,0.7,0,1.8,0,3.1h5.6v6.8h-5.6v29.9h-8.5v-29.9h-4.8v-6.8h4.7v-2.4c0-4,0.6-6.7,1.8-8.2
		C379.1,395.9,382.1,394.7,386.9,394.7z"/>
	<path class="st0" d="M413.1,445.3v-50.1h9.3v41.1h22v9L413.1,445.3L413.1,445.3z"/>
	<path class="st0" d="M456.4,394.9v8.9h-8.7v-8.9H456.4z M447.7,445.3v-37h8.7v37H447.7z"/>
	<path class="st0" d="M482.9,407.4c3.4,0,6.2,1,8.3,3c2.2,2,3.2,5.3,3.2,10v24.9h-8.8v-22.5c0-2-0.2-3.4-0.7-4.5
		c-0.8-1.9-2.5-2.9-4.8-2.9c-2.9,0-4.9,1.4-6,4.2c-0.6,1.5-0.8,3.4-0.8,5.6v20h-8.5v-37h8.3v5.4c1.1-1.9,2.1-3.3,3.1-4.1
		C478,408.2,480.2,407.4,482.9,407.4z"/>
	<path class="st0" d="M518.7,417.3c1.2,1.3,1.9,3.3,2.1,5.8h-13.3c0.3-2.4,1-4.3,2.1-5.7c1.1-1.4,2.6-2.1,4.6-2.1
		C515.9,415.3,517.5,416,518.7,417.3z M502.9,412.4c-2.9,3.4-4.3,8.3-4.3,14.7c0,6.8,1.6,11.8,4.8,14.8c3.2,3,6.9,4.5,11,4.5
		c5.1,0,9-1.8,11.8-5.4c1.8-2.3,2.8-4.5,3-6.7h-8.8c-0.5,1.1-1,1.9-1.6,2.5c-1.1,1.1-2.5,1.7-4.3,1.7c-1.7,0-3.1-0.5-4.3-1.4
		c-2-1.5-3-4.1-3.1-7.8h22.5c0-3.2,0-5.6-0.3-7.3c-0.4-2.9-1.2-5.4-2.5-7.7c-1.4-2.5-3.2-4.3-5.4-5.5s-4.6-1.7-7.4-1.7
		C509.5,407.3,505.8,409,502.9,412.4z"/>
	<path class="st0" d="M551.1,437.6c-1.6,1.2-3.3,1.8-5.1,1.8c-1.2,0-2.2-0.4-3-1.1c-0.8-0.7-1.2-1.9-1.2-3.6c0-1.9,0.7-3.2,2-4.1
		c0.8-0.5,2.1-1,3.9-1.3l1.9-0.4c1-0.2,1.7-0.4,2.3-0.7c0.5-0.2,1.1-0.5,1.6-0.9v3.6C553.5,434.2,552.7,436.4,551.1,437.6z
		 M537.9,425.6c-3.1,2-4.7,5.3-4.7,9.9c0,3.5,1,6.2,2.9,8.1c1.9,1.9,4.4,2.9,7.4,2.9c2.3,0,4.4-0.6,6.3-1.8c1.6-1,2.9-2.3,4.1-3.7
		c0.1,0.8,0.1,1.6,0.2,2.3c0.1,0.7,0.3,1.3,0.5,2.1h9.3v-1.4c-0.6-0.3-1-0.7-1.3-1.1c-0.3-0.5-0.5-1.3-0.5-2.6
		c0-1.7-0.1-3.1-0.1-4.3v-17c0-4.5-1.4-7.5-4.2-9.1c-2.8-1.6-6-2.4-9.6-2.4c-5.5,0-9.4,1.6-11.7,4.9c-1.4,2.1-2.2,4.7-2.4,8h8.3
		c0.2-1.4,0.6-2.6,1.2-3.4c0.9-1.1,2.3-1.7,4.3-1.7c1.8,0,3.2,0.3,4.1,0.9c0.9,0.6,1.4,1.6,1.4,3.2c0,1.2-0.6,2.2-1.8,2.7
		c-0.7,0.3-1.8,0.6-3.4,0.9l-2.9,0.4C542.1,423.7,539.6,424.5,537.9,425.6z"/>
	<path class="st0" d="M587.5,407.4c0.2,0,0.3,0,0.4,0s0.4,0,0.7,0v9.9c-0.5-0.1-1-0.1-1.4-0.1s-0.8,0-1,0c-3.4,0-5.8,1.3-7,3.8
		c-0.7,1.4-1,3.6-1,6.6v17.7h-8.6v-37h8.2v6.5c1.3-2.5,2.5-4.2,3.5-5.1C582.9,408.2,585,407.4,587.5,407.4z"/>
	<path class="st0" d="M630.4,434.6l8-39.4h13.3v50.1h-8.6v-33.9c0-1,0-2.3,0-4.1s0-3.1,0-4l-8.4,42h-9l-8.3-42c0,0.9,0,2.3,0,4
		c0,1.8,0,3.1,0,4.1v33.9h-8.6v-50.1h13.5L630.4,434.6z"/>
	<path class="st0" d="M668.6,435.5c-1.4-2-2-4.9-2-8.6s0.7-6.6,2-8.6c1.3-2,3.3-3,5.8-3c2.5,0,4.4,1,5.8,3s2,4.9,2,8.6
		s-0.7,6.6-2,8.6s-3.3,3-5.8,3C671.9,438.5,670,437.5,668.6,435.5z M687.1,413c-2.8-3.9-7-5.9-12.6-5.9c-5.6,0-9.9,2-12.6,5.9
		c-2.8,3.9-4.2,8.5-4.2,13.9c0,5.4,1.4,10.1,4.2,14c2.8,3.9,7,5.8,12.6,5.8c5.6,0,9.9-1.9,12.6-5.8c2.8-3.9,4.2-8.5,4.2-14
		C691.2,421.5,689.8,416.9,687.1,413z"/>
	<path class="st0" d="M698.6,415.5H694v-6.9h4.6v-10.3h8.5v10.3h5.3v6.9H707v19.6c0,1.5,0.2,2.5,0.5,2.8c0.3,0.4,1.4,0.6,3.1,0.6
		c0.3,0,0.5,0,0.8,0c0.3,0,0.6,0,0.9,0v7.2l-4.1,0.2c-4,0.2-6.8-0.6-8.3-2.4c-1-1.1-1.4-2.8-1.4-5.1V415.5z"/>
	<path class="st0" d="M726.7,394.9v8.9H718v-8.9H726.7z M718,445.3v-37h8.7v37H718z"/>
	<path class="st0" d="M740.2,435.5c-1.3-2-2-4.9-2-8.6s0.7-6.6,2-8.6c1.4-2,3.3-3,5.8-3c2.5,0,4.4,1,5.8,3c1.3,2,2,4.9,2,8.6
		s-0.7,6.6-2,8.6c-1.4,2-3.3,3-5.8,3C743.5,438.5,741.6,437.5,740.2,435.5z M758.6,413c-2.8-3.9-7-5.9-12.6-5.9
		c-5.6,0-9.9,2-12.6,5.9c-2.8,3.9-4.2,8.5-4.2,13.9c0,5.4,1.4,10.1,4.2,14c2.8,3.9,7,5.8,12.6,5.8c5.6,0,9.9-1.9,12.6-5.8
		c2.8-3.9,4.2-8.5,4.2-14C762.8,421.5,761.4,416.9,758.6,413z"/>
	<path class="st0" d="M780.4,409.7c-1,0.8-2,2.2-3.1,4.1v-5.4H769v37h8.5v-20c0-2.3,0.3-4.2,0.9-5.6c1.1-2.8,3.1-4.2,6-4.2
		c2.4,0,4,0.9,4.8,2.9c0.5,1,0.7,2.5,0.7,4.5v22.5h8.8v-24.9c0-4.6-1.1-8-3.2-10s-4.9-3-8.3-3C784.4,407.4,782.2,408.2,780.4,409.7z
		"/>
</g>
</svg>
